<svg width="88" height="88" viewBox="0 0 88 88" fill="none" xmlns="http://www.w3.org/2000/svg">
<circle cx="44" cy="44" r="43.5" fill="#798C64" stroke="#FFF6E2"/>
<path d="M38.5844 83.4969L12.4957 68.4339C9.14417 66.4988 7.08032 62.9245 7.08032 59.0544V28.9285C7.08032 25.0583 9.14417 21.484 12.4957 19.5489L38.5844 4.48597C41.936 2.5509 46.0637 2.5509 49.4153 4.48597L75.504 19.5489C78.8556 21.484 80.9194 25.0583 80.9194 28.9285V59.0544C80.9194 62.9245 78.8556 66.4988 75.504 68.4339L49.4153 83.4969C46.0637 85.4319 41.936 85.4319 38.5844 83.4969Z" fill="#798C64" stroke="#FFF6E2"/>
<path d="M18.8682 22.9593C17.5282 23.5822 16.4911 24.5428 14.9354 25.4964C13.846 26.1647 16.2544 27.6055 17.0827 28.2076C21.5828 31.4791 22.7 34.9351 24.2731 38.4224C25.6862 41.5548 25.2059 42.7207 25.9193 42.9225C25.9333 42.926 26.7163 42.933 26.7303 42.933C27.7918 42.9017 27.7465 42.8773 28.7558 42.8773C29.6085 42.8773 29.4589 40.0095 29.706 38.3424C30.2454 34.7298 30.1654 35.7147 30.7918 32.3945C31.1712 30.3724 31.6793 28.7053 32.1248 26.095C32.8348 21.95 33.7432 21.1599 32.0169 21.4627C28.6097 22.0544 29.9148 21.8212 26.8869 22.566C26.1108 22.7574 26.3613 24.7412 26.6641 27.3793C27.1514 31.5905 27.1618 36.55 26.8834 36.6509C26.5597 36.7658 24.6908 30.9919 21.8961 26.276C20.5561 24.0138 19.9123 22.4685 18.8716 22.9523L18.8682 22.9593Z" fill="#FFF6E2" stroke="#FFF6E2"/>
<path d="M34.5197 25.0549C35.5708 24.0699 37.6625 24.0595 38.5396 24.9888C39.166 25.6535 38.8493 26.4575 38.6683 28.8137C38.463 31.4692 38.5256 34.8521 38.7971 37.3684C38.7971 37.3684 38.9328 38.6387 38.7971 40.6747C38.6892 42.2931 38.6579 43.1562 37.9897 43.2084C36.8342 43.2989 36.2147 43.4659 34.4919 43.1423C33.6984 42.9926 33.8898 41.5135 33.8654 40.9705C33.775 39.1085 34.0499 37.6885 34.1404 35.9519C34.2344 34.1282 34.2622 35.2941 34.0012 30.8879C33.7193 26.1442 34.0812 25.4656 34.5197 25.0549Z" fill="#FFF6E2" stroke="#FFF6E2"/>
<path d="M44.5566 49.2606C45.2735 47.7779 47.8907 48.7977 48.0648 49.1562C51.0265 55.2955 51.9488 57.2236 54.7331 64.1565C55.3944 65.7992 52.0289 65.1692 50.3305 65.0996C49.349 65.0579 50.3374 63.4082 49.2133 62.8548C47.0833 61.8072 44.8698 62.0891 43.2967 62.5764C42.6807 62.7678 42.6807 63.0741 42.4858 64.3966C42.2839 65.7679 37.1295 65.827 37.5019 64.5671C39.4613 57.9371 42.8616 52.7722 44.5566 49.2571V49.2606Z" fill="#FFF6E2" stroke="#FFF6E2"/>
<path d="M45.9283 54.3798C45.6185 54.4041 44.9851 55.3995 44.644 57.3415C44.47 58.3334 47.5606 57.9506 47.5258 57.5538C47.31 55.2672 46.694 54.3241 45.9283 54.3798Z" fill="#798C64" stroke="#FFF6E2"/>
<path d="M56.4425 28.0338C55.8404 28.8448 56.3764 30.4248 56.7 36.244C56.8775 39.4355 56.6896 40.8902 56.9297 42.352C57.2812 44.5272 63.4032 43.8381 63.9078 43.7372C64.757 43.5666 70.3534 42.446 71.4915 37.8867C72.5948 33.4597 68.4706 29.8819 67.9102 29.4086C64.2002 26.2902 58.1304 25.7681 56.446 28.0338H56.4425Z" fill="#FFF6E2" stroke="#FFF6E2"/>
<path d="M60.3543 31.803C60.0724 32.1823 60.323 32.9167 60.4761 35.6279C60.5597 37.114 60.4727 37.7927 60.584 38.4713C60.7476 39.4841 63.598 39.1639 63.8347 39.1152C64.2314 39.0351 66.8347 38.5131 67.3672 36.3901C67.8823 34.3262 65.9612 32.6626 65.7001 32.4434C63.9739 30.9921 61.1478 30.7484 60.3613 31.803H60.3543Z" fill="#798C64" stroke="#FFF6E2"/>
<path d="M42.3397 25.2738C43.9162 24.6369 44.8351 25.0232 46.0949 25.3887C47.1878 25.7054 46.0462 27.4282 46.1506 31.4375C46.2585 35.6801 46.4325 37.0096 46.4673 38.3564C46.4952 39.3762 50.2783 38.5131 55.029 38.7706C55.5998 38.8019 55.3666 39.8843 55.4258 40.9528C55.5197 42.686 55.5128 43.7301 54.2947 43.6292C50.3027 43.302 45.8026 43.918 42.0717 43.0236C40.8466 42.7312 41.828 39.933 41.7236 35.8123C41.6749 33.9434 41.1877 31.3227 41.3652 28.3539C41.4661 26.6277 41.5983 25.5731 42.3466 25.2703L42.3397 25.2738Z" fill="#FFF6E2" stroke="#FFF6E2"/>
<path d="M35.7169 65.0788C34.6032 65.1623 33.6879 65.3712 31.6728 65.2285C31.3561 65.2076 31.0046 64.4802 30.1379 61.6924C29.4071 59.3397 29.2017 57.9615 28.9198 57.9719C28.4848 57.9893 29.0138 62.9871 27.1692 63.1124C25.958 63.1959 24.9487 63.2273 22.9754 63.1959C22.3315 63.1855 22.1993 62.2423 21.6146 59.7156C21.0995 57.5021 20.9742 56.7469 20.8211 56.7538C20.5426 56.7677 20.6575 59.2562 19.7143 62.573C19.0461 64.9187 18.5519 65.573 18.089 65.5661C16.937 65.5452 15.9277 65.5591 14.7444 64.7934C13.2478 63.8224 15.6214 61.3792 17.0901 56.9383C17.4521 55.8385 18.0925 52.7897 18.4161 49.0936C18.7398 45.3974 17.3163 41.3428 18.5519 40.1908C19.4428 39.359 21.1517 39.279 22.074 40.0099C22.9649 40.7164 22.5438 43.5389 22.958 47.8198C23.2503 50.8372 23.3165 51.7421 23.8211 53.7015C24.2875 55.5148 24.2736 57.0879 24.9731 57.0462C25.798 56.9974 25.7631 54.8675 26.2678 52.8628C26.6924 51.1748 26.7063 49.5982 27.3641 49.0727C28.1681 48.4358 29.6263 48.4984 30.6148 49.104C32.5672 50.3012 31.4988 52.8871 32.9222 57.3733C34.3526 61.8838 37.2866 64.964 35.7169 65.0788Z" fill="#FFF6E2" stroke="#FFF6E2"/>
<path d="M57.1417 49.386C56.4944 50.1621 56.9399 51.77 56.926 57.5996C56.919 60.7981 56.6475 62.2389 56.8007 63.7076C57.0269 65.8968 63.1801 65.5661 63.6848 65.4931C64.541 65.3712 70.193 64.5742 71.5921 60.0881C72.9495 55.7307 69.041 51.9232 68.5051 51.415C64.9795 48.0843 58.9515 47.2143 57.1383 49.3825L57.1417 49.386Z" fill="#FFF6E2" stroke="#FFF6E2"/>
<path d="M60.8272 53.3748C60.5244 53.7367 60.7332 54.485 60.7263 57.1997C60.7263 58.6893 60.5975 59.361 60.6671 60.0431C60.7715 61.0629 63.6359 60.9097 63.8725 60.8749C64.2728 60.8192 66.9039 60.4468 67.5547 58.3586C68.1882 56.3296 66.3679 54.5546 66.1174 54.3214C64.4746 52.7727 61.6695 52.3655 60.8237 53.3748H60.8272Z" fill="#798C64" stroke="#FFF6E2"/>
</svg>
