<svg width="118" height="131" viewBox="0 0 118 131" fill="none" xmlns="http://www.w3.org/2000/svg">
<path d="M50.3458 128.584L8.65422 104.513C3.29817 101.42 0 95.7082 0 89.5234V41.3801C0 35.1953 3.29817 29.4833 8.65422 26.3909L50.3458 2.31929C55.7018 -0.773096 62.2982 -0.773096 67.6542 2.31929L109.346 26.3909C114.702 29.4833 118 35.1953 118 41.3801V89.5234C118 95.7082 114.702 101.42 109.346 104.513L67.6542 128.584C62.2982 131.677 55.7018 131.677 50.3458 128.584Z" fill="#3d654d"/>
<path d="M18.8379 31.8415C16.6966 32.8371 15.0392 34.3722 12.5531 35.8961C10.8122 36.964 14.661 39.2666 15.9847 40.2288C23.1762 45.4569 24.9615 50.9798 27.4755 56.5528C29.7336 61.5584 28.9661 63.4217 30.1062 63.7442C30.1285 63.7498 31.3799 63.7609 31.4021 63.7609C33.0985 63.7109 33.0262 63.6719 34.6391 63.6719C36.0018 63.6719 35.7626 59.089 36.1575 56.4249C37.0196 50.6517 36.8917 52.2257 37.8928 46.9197C38.499 43.6883 39.3111 41.0241 40.023 36.8528C41.1576 30.2286 42.6092 28.9661 39.8506 29.4499C34.4055 30.3955 36.4912 30.0228 31.6524 31.213C30.4121 31.5189 30.8126 34.6892 31.2965 38.9051C32.0751 45.6349 32.0918 53.5605 31.6469 53.7218C31.1296 53.9053 28.1429 44.6783 23.6767 37.142C21.5354 33.5268 20.5065 31.0573 18.8435 31.8304L18.8379 31.8415Z" fill="#FFF6E2"/>
<path d="M43.8495 35.1898C45.5292 33.6158 48.8719 33.5991 50.2735 35.0841C51.2746 36.1464 50.7685 37.4312 50.4793 41.1965C50.1511 45.4402 50.2512 50.8463 50.685 54.8676C50.685 54.8676 50.902 56.8976 50.685 60.1513C50.5126 62.7376 50.4626 64.1169 49.3947 64.2003C47.5482 64.3449 46.5582 64.6119 43.805 64.0946C42.5369 63.8555 42.8428 61.4917 42.8039 60.6241C42.6593 57.6485 43.0987 55.3792 43.2433 52.6039C43.3935 49.6895 43.438 51.5527 43.0208 44.5114C42.5703 36.9306 43.1487 35.8461 43.8495 35.1898Z" fill="#FFF6E2"/>
<path d="M59.8899 73.8724C61.0356 71.503 65.2181 73.1326 65.4962 73.7055C70.2293 83.5166 71.7032 86.5978 76.1527 97.677C77.2094 100.302 71.8311 99.2955 69.117 99.1843C67.5485 99.1176 69.1281 96.4812 67.3316 95.5969C63.9278 93.9228 60.3904 94.3733 57.8765 95.152C56.892 95.4579 56.892 95.9473 56.5806 98.0608C56.258 100.252 48.0209 100.347 48.616 98.3333C51.7473 87.738 57.1813 79.4843 59.8899 73.8668V73.8724Z" fill="#FFF6E2"/>
<path d="M62.0812 82.0538C61.5862 82.0928 60.574 83.6834 60.0289 86.7869C59.7508 88.3721 64.6897 87.7603 64.6341 87.1262C64.2893 83.4721 63.3049 81.9648 62.0812 82.0538Z" fill="#3d654d"/>
<path d="M78.8836 39.9507C77.9214 41.2466 78.7779 43.7717 79.2951 53.0711C79.5788 58.1713 79.2784 60.4961 79.6622 62.8321C80.224 66.3083 90.0072 65.207 90.8137 65.0457C92.1708 64.7732 101.114 62.9823 102.933 55.6963C104.696 48.6216 98.1053 42.904 97.2098 42.1476C91.2809 37.1642 81.581 36.3299 78.8891 39.9507H78.8836Z" fill="#FFF6E2"/>
<path d="M85.1351 45.9742C84.6846 46.5804 85.085 47.754 85.3297 52.0866C85.4632 54.4615 85.3242 55.5461 85.5021 56.6307C85.7636 58.2492 90.3187 57.7375 90.6969 57.6596C91.331 57.5317 95.4912 56.6974 96.3422 53.3047C97.1653 50.0065 94.0952 47.3479 93.678 46.9975C90.9194 44.6783 86.4032 44.2889 85.1462 45.9742H85.1351Z" fill="#3d654d"/>
<path d="M56.347 35.5402C58.8665 34.5223 60.3348 35.1397 62.3482 35.7237C64.0946 36.2298 62.2703 38.9829 62.4372 45.3902C62.6096 52.1701 62.8877 54.2947 62.9433 56.4471C62.9878 58.0767 69.0335 56.6974 76.6254 57.109C77.5376 57.159 77.1649 58.8888 77.2595 60.5962C77.4097 63.366 77.3985 65.0346 75.4519 64.8733C69.0725 64.3505 61.881 65.3349 55.9187 63.9055C53.9609 63.4384 55.5294 58.9666 55.3625 52.3814C55.2847 49.3947 54.506 45.2066 54.7897 40.4624C54.951 37.7037 55.1623 36.0185 56.3581 35.5346L56.347 35.5402Z" fill="#FFF6E2"/>
<path d="M45.7628 99.1509C43.983 99.2844 42.5203 99.6181 39.3 99.3901C38.7938 99.3567 38.2321 98.1943 36.8472 93.7393C35.6792 89.9794 35.3511 87.777 34.9005 87.7937C34.2053 87.8215 35.0507 95.8083 32.1029 96.0085C30.1674 96.142 28.5545 96.192 25.4009 96.142C24.372 96.1253 24.1606 94.618 23.2262 90.5801C22.4031 87.0428 22.2029 85.8359 21.9581 85.847C21.5132 85.8693 21.6967 89.846 20.1895 95.1464C19.1216 98.8951 18.3318 99.9407 17.5921 99.9296C15.7511 99.8962 14.1382 99.9185 12.2472 98.6949C9.85558 97.1431 13.6488 93.2387 15.9958 86.1418C16.5743 84.3842 17.5977 79.5121 18.1149 73.6054C18.6322 67.6987 16.3574 61.2192 18.3318 59.3782C19.7557 58.0489 22.4865 57.921 23.9604 59.089C25.3842 60.218 24.7113 64.7287 25.3731 71.5698C25.8403 76.3919 25.946 77.838 26.7524 80.9693C27.4977 83.867 27.4755 86.3809 28.5934 86.3142C29.9116 86.2363 29.856 82.8325 30.6624 79.6289C31.341 76.9314 31.3632 74.4119 32.4144 73.572C33.6992 72.5542 36.0296 72.6543 37.6092 73.6221C40.7294 75.5353 39.0219 79.6678 41.2967 86.837C43.5826 94.0452 48.2712 98.9674 45.7628 99.1509Z" fill="#FFF6E2"/>
<path d="M80.0015 74.0726C78.967 75.3129 79.6789 77.8824 79.6567 87.1985C79.6455 92.3099 79.2117 94.6125 79.4564 96.9596C79.818 100.458 89.6513 99.9296 90.4578 99.8128C91.826 99.6181 100.858 98.3444 103.094 91.1752C105.263 84.2118 99.0174 78.1272 98.1609 77.3151C92.5268 71.9925 82.8936 70.602 79.9959 74.067L80.0015 74.0726Z" fill="#FFF6E2"/>
<path d="M85.8915 80.4465C85.4076 81.0249 85.7413 82.2207 85.7302 86.5589C85.7302 88.9394 85.5244 90.0128 85.6356 91.1029C85.8025 92.7326 90.3799 92.4878 90.7581 92.4322C91.3977 92.3432 95.6024 91.7481 96.6425 88.411C97.6548 85.1685 94.7459 82.3319 94.3455 81.9593C91.7203 79.4843 87.2374 78.8335 85.8859 80.4465H85.8915Z" fill="#3d654d"/>
</svg>
