<?xml version="1.0" encoding="UTF-8"?><svg id="Layer_1" xmlns="http://www.w3.org/2000/svg" width="2753" height="1325" xmlns:xlink="http://www.w3.org/1999/xlink" viewBox="0 0 2753 1325"><defs><style>.cls-1{fill:url(#linear-gradient);}.cls-1,.cls-2,.cls-3,.cls-4,.cls-5,.cls-6,.cls-7,.cls-8,.cls-9,.cls-10,.cls-11,.cls-12,.cls-13,.cls-14,.cls-15,.cls-16,.cls-17,.cls-18,.cls-19,.cls-20,.cls-21,.cls-22,.cls-23,.cls-24,.cls-25,.cls-26,.cls-27,.cls-28,.cls-29,.cls-30,.cls-31,.cls-32,.cls-33,.cls-34,.cls-35{stroke-width:0px;}.cls-2{fill:url(#linear-gradient-2);}.cls-3{fill:url(#linear-gradient-3);}.cls-4{fill:#7c5a24;}.cls-5{fill:#a37d5a;}.cls-6{fill:#846769;}.cls-7{fill:#e07935;}.cls-8{fill:#e07635;}.cls-9{fill:#de8067;}.cls-10{fill:#dedf66;}.cls-11{fill:#d0ba59;}.cls-12{fill:#dcb85c;}.cls-13{fill:#db9536;}.cls-14{fill:#bba449;}.cls-15{fill:#998675;}.cls-16{fill:#996e4a;}.cls-17{fill:#99756f;}.cls-18{fill:#6aa5ab;}.cls-19{fill:#7f6734;}.cls-20{fill:#ffaf00;}.cls-21{fill:#eec35b;}.cls-22{fill:#e9a646;}.cls-23{fill:#e4c95d;}.cls-24{fill:#e58441;}.cls-25{fill:#e78539;}.cls-26{fill:#e6aa48;}.cls-27{fill:#ee7f42;}.cls-28{fill:#fd8f00;}.cls-29{fill:#ffcb00;}.cls-30{fill:#f1a950;}.cls-31{fill:#f6a000;}.cls-32{fill:#e8a845;}.cls-33{fill:#e8a244;}.cls-34{fill:#e8a746;}.cls-35{fill:#e98339;}</style><linearGradient id="linear-gradient" x1="1376.5" y1="1325" x2="1376.5" y2="0" gradientUnits="userSpaceOnUse"><stop offset=".38" stop-color="#fce9c6"/><stop offset=".52" stop-color="#fadfc7"/><stop offset=".75" stop-color="#f6c8ca"/><stop offset=".89" stop-color="#eebfd2"/><stop offset=".99" stop-color="#e0b6dc"/></linearGradient><linearGradient id="linear-gradient-2" x1="2068.51" y1="377.42" x2="2068.51" y2="266.42" gradientUnits="userSpaceOnUse"><stop offset="0" stop-color="#ffcec7"/><stop offset=".12" stop-color="#ffd0c8"/><stop offset=".24" stop-color="#ffd0c7"/><stop offset=".84" stop-color="#fffefd"/><stop offset="1" stop-color="#fff"/></linearGradient><linearGradient id="linear-gradient-3" x1="1502.74" y1="258.92" x2="1502.74" y2="172.42" xlink:href="#linear-gradient-2"/></defs><rect class="cls-1" width="2753" height="1325"/><path class="cls-22" d="m2061.68,849.05c-50.53-67.46-161.3-70.7-336.94-75.84-54.58-1.6-121.22-3.23-208.09,9.96-136,20.64-442.83,95.97-449.17,196.69-9.62,152.68,665.37,458.38,918.02,224.64,97.65-90.35,140.78-269.2,76.18-355.45Z"/><path class="cls-11" d="m1301,839.5c-30.09-26.01-75.19-36.48-117.93-46.41,0,0-73.64-16.7-146.6-8.02-43.26,5.15-43.05,12.14-105.55,22.35-44.69,7.3-75,12.25-114.67,10.31-69.8-3.4-126.92-26.07-142.69-32.66-24.66-10.31-42.05-20.51-78.19-30.37-31.14-8.5-46.72-12.75-66.46-9.74-28.01,4.27-33.62,18.45-82.75,50.42-36.11,23.49-54.16,35.24-77.53,40.11-52.08,10.85-99.19-10.01-103.6-12.03-24.72-11.32-24.71-19.64-54.73-32.09-26.96-11.18-50.69-14.31-64.5-16.04-36.76-4.61-47.97,1.02-87.31-2.29-36.95-3.11-46.43-9.88-57.99-9.74-64.73.79-170.15,210.21-132,331.2,101.06,320.55,1316.95,360.2,1460,29,28.66-66.36,45.8-220.65-27.5-284Z"/><path class="cls-11" d="m181,1074c-23.35-61.34,141.4-190.94,158-204,32.08-25.23,36.72-23.01,107-75,43.71-32.34,57.39-44.64,83-50,37.53-7.85,68.64,5.92,112,26,106.96,49.52,160.44,74.28,184,89,146.48,91.51,219.73,137.27,212,173-7.64,35.36-86.88,41.08-469,61-289.28,15.08-372.34,18.51-387-20Z"/><path class="cls-14" d="m2753,771.23c-44.79-18.64-84.43-19.81-185.24-11.22-187.01,15.93-280.52,23.89-411.64,60.21-261.4,72.39-464.76,128.72-470.12,214.79-8.8,141.26,515.25,370.82,955.5,245.5,93.8-26.7,264.61-75.32,295-205,27.39-116.87-69.32-256.75-183.5-304.27Z"/><path class="cls-8" d="m1559.98,1040.33c-15.82-15.31-28.88-15.5-29.67-24.91-1.33-15.73,33.03-40.14,67.59-42.04,13.95-.77,25.82,2.26,31.32-4.67,6.39-8.04-4.85-18.1,0-28.03,8.11-16.6,55.83-21.79,85.72-3.11,13.55,8.46,14.66,16.35,24.73,17.13,20.81,1.61,28.64-31.12,49.45-31.14,18.59-.02,20.55,26.08,49.45,34.25,19.73,5.58,26.61-4.37,41.21,3.11,11.43,5.86,9.77,13.26,28.02,45.15,14.61,25.53,21.27,30.56,19.78,42.04-1.84,14.25-14.32,23.61-18.13,26.47-28.39,21.29-69.6,11.45-102.21,7.78-118.72-13.34-190.52,47.68-219.25,14.01-12.6-14.76-4.98-33.76-28.02-56.05Z"/><path class="cls-31" d="m1608.27,1052.13c5.59-6.51-2.55-16.05,1.5-21.19,6.28-7.97,32.91,6.02,38.98-1.41,4.22-5.17-7.26-13.63-4.5-25.42,2.92-12.46,20.4-22.9,35.98-22.6,17.31.34,19.68,13.69,35.98,14.12,20.55.54,26.22-20.43,43.48-18.36,15.01,1.8,14.61,18.13,37.48,26.84,14.04,5.35,18.78.94,28.48,7.06,12.55,7.92,21.22,25.75,16.49,36.72-5.05,11.72-25,14.7-88.45,15.54-95.36,1.25-154.51-4.11-154.42-7.06.03-.9,5.58-.25,9-4.24Z"/><path class="cls-21" d="m2753.5,1133.5c-35.22-13.77-66.51,22.6-138,46-112.43,36.8-213.5,5.23-288.91-15.5-227.91-62.66-464.09-90.07-695.48-138.32-198.24-41.34-405.64-44.03-820.45-49.4-544.2-7.05-701.52-90.25-810.67,23.88-92.67,96.9-111.64,272.07-65.5,394.35,250.9,664.91,2724.36,554.31,2869,43,22.12-78.2,21.01-276.24-50-304Z"/><path class="cls-4" d="m1931.12,1442.42c26.32,7.81,73.29,3.68,93.11-8.49,19.23-11.81,10.27-29.61,4.81-42.73-30.08-72.21-20.92-162.86-17.98-191.95,1.56-15.41,5.11-38.17-16.78-60.43-14.9-15.15-44.83-33.36-61.05-28.85-25.62,7.11,14.84,62.03,11.43,149.05-4.14,105.46-69.16,166.89-13.54,183.4Z"/><path class="cls-23" d="m2224.8,582.55h0s-114.66,103.97-240,219c-.3.28-111,102-111,102h0s118.56-39.69,242-72c11.4-2.98,160.85-41.8,257-52,4.96-.53,76-8,76-8h0s-62.53-58.16-134-117c-40.04-32.96-90-71.99-90-72Z"/><polygon class="cls-17" points="2493.39 723.19 2495.88 809.55 2510.94 809.55 2507.26 723.19 2493.39 723.19"/><path class="cls-13" d="m2501.69,521.41c7.42.31,8.45,9.25,26.57,34.05,13.93,19.06,21.53,25,19.1,30.72-3.86,9.1-27.86,5.58-28.23,9.96-.21,2.45,7.1,5.95,14.12,6.64,8.16.81,11.23-2.62,16.61-1.66,7.97,1.43,12.53,11.02,15.78,18.27,15.39,34.4,23.09,51.6,20.76,64.77-4.23,23.92-22.32,38.31-27.4,42.35-36.95,29.37-84.99,13.45-93,10.79-11.52-3.82-30.38-10.07-40.69-28.23-8.39-14.79-10.47-36.34-1.66-43.18,0,0,2.53-1.97,25.74-2.49h0c-22.75-7.23-26.57-14.95-26.57-14.95-4.79-9.67,7.9-19.72,29.06-56.47,9.07-15.74,10.78-20.92,21.59-38.2,19.65-31.41,25.36-32.5,28.23-32.38Z"/><polygon class="cls-17" points="2613.82 755.88 2616.31 842.24 2631.37 842.24 2627.7 755.88 2613.82 755.88"/><path class="cls-7" d="m2622.12,554.1c7.42.31,8.45,9.25,26.57,34.05,13.93,19.06,21.53,25,19.1,30.72-3.86,9.1-27.86,5.58-28.23,9.96-.21,2.45,7.1,5.95,14.12,6.64,8.16.81,11.23-2.62,16.61-1.66,7.97,1.43,12.53,11.02,15.78,18.27,15.39,34.4,23.09,51.6,20.76,64.77-4.23,23.92-22.32,38.31-27.4,42.35-36.95,29.37-84.99,13.45-93,10.79-11.52-3.82-30.38-10.07-40.69-28.23-8.39-14.79-10.47-36.34-1.66-43.18,0,0,2.53-1.97,25.74-2.49h0c-22.75-7.23-26.57-14.95-26.57-14.95-4.79-9.67,7.9-19.72,29.06-56.47,9.07-15.74,10.78-20.92,21.59-38.2,19.65-31.41,25.36-32.5,28.23-32.38Z"/><polygon class="cls-6" points="2224.8 582.55 1881.65 896.34 1916.92 903.55 2224.8 582.55"/><path class="cls-6" d="m2264.99,614.31c98.94,88.41,197.87,176.83,296.81,265.24l-39,9c-98.63-94.93-197.26-189.86-295.88-284.8l-11.68-11.23,9.56-9.97,40.19,31.76Z"/><polyline class="cls-6" points="1916.92 903.55 2226.91 603.76 2215.23 592.52 1881.65 896.34"/><polygon class="cls-9" points="2226.91 603.76 2459.6 827.46 2459.6 940.42 1977.56 940.42 1977.56 844.9 2226.91 603.76"/><polygon class="cls-6" points="1977.56 940.42 1962.69 940.42 1962.69 951.33 2482.8 951.55 2482.8 940.42 1977.56 940.42"/><polygon class="cls-18" points="2161.3 754.87 2161.3 878.3 2290.8 878.55 2290.8 754.87 2161.3 754.87"/><path class="cls-35" d="m457.56,824.39c12.67-4.38,19.95-8.97,23.5-11.4,5.7-3.89,15.99-11.08,23.81-23.98,5.32-8.77,17.43-28.18,9.05-45.97-5.62-11.93-17.68-16.05-35.7-22.21,0,0-12.25-4.19-50.78-9.3-1.92-12.86-2.01-13.43-2.01-13.43-1.64-10.58-15.98-29.58-38.21-43.91-26.59-17.14-52.73-20.03-63.85-20.66-9.47-.54-35.18-.97-63.85,12.4-16.19,7.55-44.12,20.56-47.77,42.87,0,0-1.14,6.96,0,28.93,0,0-8.41,5.28-9.05,5.68-6.41,4.05-16.63,13.44-21.62,21.7-13.21,21.85.15,52.28,1.51,55.27,9.35,20.59,25.5,30.17,39.22,38.23,23.78,13.98,45.1,16.46,67.01,19.01,25.16,2.93,46.31,5.4,71.45-2.97,24.54-8.17,23.07-16.74,47-21.81,18.36-3.89,27.89-.68,50.3-8.43Z"/><path class="cls-34" d="m408.53,791.07c21.82-8.04,37.99,11.54,62.9,2.89,12.01-4.17,18.83-12.39,21.3-15.44,8.09-10.01,16.18-28.31,8.92-42.94-5.54-11.14-17.42-14.99-35.17-20.75,0,0-12.06-3.91-50.02-8.68h0c-1.89-12.01-1.98-12.54-1.98-12.54-1.61-9.88-15.74-27.62-37.64-41.01-26.19-16.01-51.94-18.71-62.9-19.3-9.33-.5-34.66-.9-62.9,11.58-15.95,7.05-43.46,19.21-47.05,40.04,0,0-1.12,6.5,0,27.02h0s-8.28,4.93-8.92,5.31c-6.31,3.78-16.38,12.55-21.3,20.26-13.01,20.4.15,48.83,1.49,51.62,9.33,19.47,25.85,28.75,38.63,35.7,38.14,20.74,76.7,17.21,93.61,15.44,22.31-2.33,54.12-5.66,78.26-27.98,11.76-10.87,11.95-17.23,22.78-21.23Z"/><path class="cls-10" d="m268.2,730.54c5.09-4.2,19.74-15.24,43.69-19.6,24.51-4.46,43.95.77,50.67,2.86"/><path class="cls-10" d="m245.87,710.29c-4.85-1.3-21.32-5.05-39.62,2.97-16.8,7.36-25.09,20.24-27.74,24.76"/><polygon class="cls-15" points="310.76 1095.13 349.1 1095.13 348.89 900.48 421.21 775.67 404.86 788.55 401.39 795.48 400.4 760.81 415.26 745.46 397.93 755.86 388.02 738.03 393.97 762.79 397.93 805.39 342.46 891.07 339.98 885.62 338.99 735.06 331.51 735.06 328.09 828.67 327.6 861.85 321.65 896.02 314.22 897.02 263.21 833.12 249.84 816.28 249.84 769.32 271.13 751.4 249.84 762.84 243.4 738.03 243.4 808.74 216.65 780.13 311.75 911.38 313.23 1079.78 310.76 1095.13"/><path class="cls-35" d="m401.1,756.67c20.09-6.94,31.63-14.23,37.26-18.08,9.03-6.17,25.36-17.57,37.76-38.03,8.43-13.91,27.64-44.68,14.35-72.89-8.91-18.92-28.04-25.46-56.6-35.22,0,0-19.42-6.64-80.52-14.74-3.05-20.4-3.19-21.29-3.19-21.29-2.59-16.77-25.34-46.9-60.59-69.62-42.16-27.18-83.61-31.76-101.25-32.76-15.02-.85-55.79-1.53-101.25,19.66-25.67,11.97-69.95,32.61-75.74,67.98,0,0-1.8,11.03,0,45.87,0,0-13.33,8.36-14.35,9.01-10.16,6.41-26.36,21.31-34.28,34.4-20.94,34.64.24,82.9,2.39,87.64,14.83,32.64,40.44,47.83,62.18,60.61,37.71,22.16,71.51,26.1,106.25,30.15,39.89,4.65,73.42,8.56,113.28-4.72,38.91-12.96,36.59-26.55,74.53-34.59,29.11-6.17,44.22-1.08,79.75-13.36Z"/><path class="cls-34" d="m323.37,703.83c34.6-12.75,60.23,18.29,99.74,4.59,19.05-6.61,29.86-19.64,33.77-24.48,12.83-15.88,25.66-44.89,14.14-68.08-8.78-17.67-27.62-23.77-55.76-32.89,0,0-19.13-6.2-79.32-13.77h0c-3-19.05-3.14-19.89-3.14-19.89-2.55-15.66-24.96-43.8-59.68-65.02-41.53-25.38-82.36-29.67-99.74-30.6-14.8-.79-54.96-1.43-99.74,18.36-25.29,11.18-68.9,30.45-74.61,63.49,0,0-1.78,10.3,0,42.84h0s-13.13,7.81-14.14,8.41c-10.01,5.99-25.97,19.9-33.77,32.13-20.63,32.35.24,77.43,2.36,81.85,14.8,30.88,40.98,45.58,61.25,56.61,60.47,32.88,121.61,27.28,148.43,24.48,35.37-3.7,85.8-8.98,124.08-44.37,18.64-17.24,18.95-27.33,36.12-33.66Z"/><path class="cls-10" d="m100.85,607.86c8.06-6.66,31.3-24.16,69.28-31.07,38.86-7.07,69.69,1.23,80.34,4.53"/><path class="cls-10" d="m65.46,575.75c-7.69-2.05-33.8-8.01-62.83,4.71-26.63,11.67-39.79,32.09-43.98,39.27"/><polygon class="cls-5" points="168.34 1185.94 229.14 1185.94 228.8 877.31 343.46 679.41 317.55 699.83 312.05 710.83 310.48 655.85 334.04 631.51 306.55 648 290.84 619.73 300.27 659 306.55 726.53 218.6 862.39 214.67 853.75 213.1 615.02 201.23 615.02 195.82 763.44 195.04 816.06 185.61 870.25 173.83 871.82 92.94 770.51 71.74 743.81 71.74 669.35 105.51 640.93 71.74 659.07 61.53 619.73 61.53 731.84 19.12 686.48 169.91 894.59 172.26 1161.6 168.34 1185.94"/><path class="cls-35" d="m692.9,769.82c23.93-7.84,37.69-16.07,44.4-20.42,10.76-6.97,30.21-19.85,44.99-42.95,10.05-15.71,32.93-50.47,17.1-82.33-10.62-21.37-33.41-28.75-67.44-39.78,0,0-23.14-7.5-95.94-16.65-3.63-23.04-3.8-24.05-3.8-24.05-3.09-18.94-30.19-52.97-72.19-78.63-50.24-30.69-99.62-35.88-120.64-37-17.9-.96-66.47-1.73-120.64,22.2-30.59,13.52-83.35,36.83-90.24,76.78,0,0-2.15,12.46,0,51.81,0,0-15.88,9.45-17.1,10.18-12.11,7.25-31.41,24.07-40.85,38.85-24.96,39.12.29,93.64,2.85,98.98,17.67,36.87,48.18,54.02,74.09,68.46,44.93,25.03,85.2,29.48,126.6,34.05,47.53,5.25,87.49,9.66,134.98-5.33,46.37-14.63,43.59-29.98,88.8-39.07,34.68-6.97,52.69-1.22,95.02-15.09Z"/><path class="cls-34" d="m600.28,710.14c41.23-14.4,71.77,20.66,118.84,5.18,22.7-7.46,35.58-22.19,40.24-27.65,15.29-17.93,30.58-50.7,16.84-76.9-10.46-19.96-32.91-26.85-66.44-37.15,0,0-22.79-7-94.51-15.55h0c-3.58-21.51-3.74-22.46-3.74-22.46-3.04-17.69-29.74-49.47-71.12-73.44-49.49-28.67-98.13-33.51-118.84-34.56-17.63-.9-65.48-1.62-118.84,20.74-30.13,12.62-82.1,34.4-88.89,71.71,0,0-2.12,11.63,0,48.38h0s-15.64,8.82-16.84,9.5c-11.93,6.77-30.94,22.48-40.24,36.29-24.58,36.54.28,87.45,2.81,92.45,17.63,34.88,48.83,51.48,72.99,63.94,72.05,37.14,144.9,30.82,176.85,27.65,42.14-4.18,102.24-10.14,147.85-50.11,22.21-19.47,22.57-30.87,43.04-38.02Z"/><path class="cls-10" d="m335.15,601.75c9.61-7.53,37.3-27.29,82.54-35.09,46.31-7.98,83.03,1.39,95.73,5.12"/><path class="cls-10" d="m292.98,565.48c-9.16-2.32-40.28-9.04-74.86,5.32-31.73,13.18-47.41,36.24-52.4,44.35"/><polygon class="cls-16" points="415.56 1254.68 488 1254.68 487.61 906.09 624.22 682.56 593.35 705.62 586.79 718.04 584.92 655.95 613 628.46 580.24 647.08 561.53 615.15 572.76 659.5 580.24 735.78 475.44 889.23 470.76 879.48 468.89 609.83 454.76 609.83 448.31 777.47 447.37 836.9 436.14 898.1 422.11 899.88 325.73 785.45 300.46 755.3 300.46 671.2 340.7 639.1 300.46 659.58 288.3 615.15 288.3 741.78 237.77 690.55 417.43 925.6 420.24 1227.18 415.56 1254.68"/><path class="cls-35" d="m370.78,749.94c28.74-10.13,45.25-20.76,53.32-26.37,12.92-9,36.28-25.63,54.02-55.47,12.07-20.29,39.55-65.18,20.53-106.33-12.75-27.6-40.12-37.13-80.98-51.37,0,0-27.78-9.68-115.2-21.51-4.36-29.75-4.56-31.06-4.56-31.06-3.71-24.46-36.25-68.41-86.68-101.55-60.32-39.64-119.62-46.33-144.86-47.79-21.49-1.24-79.82-2.24-144.86,28.67-36.73,17.46-100.08,47.56-108.36,99.16,0,0-2.58,16.09,0,66.91,0,0-19.07,12.2-20.53,13.14-14.54,9.36-37.72,31.08-49.05,50.18-29.97,50.53.34,120.93,3.42,127.84,21.22,47.61,57.86,69.77,88.97,88.41,53.95,32.32,102.31,38.07,152.01,43.97,57.08,6.78,105.05,12.48,162.08-6.88,55.67-18.9,52.34-38.72,106.63-50.45,41.65-9,63.26-1.58,114.1-19.49Z"/><path class="cls-34" d="m259.56,672.87c49.51-18.6,86.17,26.68,142.69,6.7,27.25-9.64,42.72-28.65,48.31-35.71,18.36-23.16,36.71-65.48,20.22-99.31-12.56-25.77-39.52-34.68-79.77-47.98,0,0-27.37-9.04-113.48-20.09h0c-4.3-27.79-4.49-29.01-4.49-29.01-3.65-22.85-35.71-63.89-85.39-94.85-59.42-37.02-117.83-43.27-142.69-44.63-21.17-1.16-78.63-2.09-142.69,26.78-36.18,16.3-98.58,44.42-106.74,92.62,0,0-2.54,15.03,0,62.49h0s-18.78,11.4-20.22,12.27c-14.32,8.74-37.16,29.03-48.31,46.87-29.52,47.19.34,112.94,3.37,119.4,21.17,45.04,58.63,66.49,87.64,82.57,86.51,47.97,173.99,39.8,212.35,35.71,50.6-5.4,122.76-13.1,177.52-64.72,26.67-25.14,27.11-39.86,51.68-49.1Z"/><path class="cls-10" d="m-58.79,532.87c11.54-9.72,44.78-35.25,99.11-45.32,55.6-10.31,99.7,1.79,114.95,6.61"/><polygon class="cls-4" points="37.76 1376.13 124.75 1376.13 124.27 925.93 288.32 637.25 251.24 667.03 243.37 683.07 241.13 602.88 274.83 567.37 235.51 591.43 213.04 550.19 226.52 607.46 235.51 705.98 109.67 904.16 104.05 891.56 101.8 543.31 84.83 543.31 77.08 759.82 75.96 836.57 62.48 915.62 45.62 917.91 -70.1 770.13 -100.44 731.18 -100.44 622.57 -52.13 581.12 -100.44 607.57 -115.05 550.19 -115.05 713.73 -175.72 647.56 40.01 951.13 43.38 1340.62 37.76 1376.13"/><path class="cls-34" d="m2752.8,935.19c-15.37-16.75-46.38-12.32-52.59-11.43-36.02,5.15-46.8,31.61-83.07,31.25-10.42-.11-9.14-2.29-25.15-3.05-19.38-.92-39.81-1.9-57.16,8.38-20.23,11.99-22.16,30.93-32.01,29.72-8.86-1.09-8.04-16.52-19.05-29.72-25.46-30.51-87.3-16.85-99.84-13.72-22.51,5.63-49.7,12.43-60.97,34.29-4.86,9.43-7.04,22.19-16,24.39-6.19,1.52-11.11-3.11-17.53-6.86-20.12-11.75-48.29-10.98-65.54-3.05-20.24,9.31-19.8,25.91-38.87,28.96-9.18,1.47-10.21-2.22-26.67-4.57-6.51-.93-31.91-4.28-57.92,5.33-7.48,2.76-5.3,3.01-36.58,18.29-18.52,9.04-16.92,7.53-19.05,9.15-12.77,9.69-9.78,19.02-19,23-11.23,4.84-19.1-7.52-31-2-8.71,4.04-15.97,15.97-16,16h0c80.69,14.33,111,20,111,20,75.31,14.09,133,28.01,170,37,130.29,31.65,131.63,39.97,191,46,51.3,5.21,96.32,9.33,148-8,20.45-6.86,32.14-13.78,73-27,36.56-11.83,82-24,82-24h0s-2.11-108.4-2-110c3.77-55.45,14.6-73.55,1-88.36Z"/><path class="cls-27" d="m119.27,221.15c-4.99-5.46,3.32-26.77,19.24-35.52,21.89-12.02,53.33,2.37,53.28,10.36,0,1.43-1.03,3.47-37,16.28-30.26,10.78-33.74,10.82-35.52,8.88Z"/><path class="cls-30" d="m376.57,294.63c4.04-4.03-2.65-19.91-13.32-29.6-11.29-10.26-24.95-11.7-31.08-11.84-17.95-.4-37.3,8.89-37,16.28.15,3.73,5.27,6.32,7.4,7.4,12.31,6.23,20.38-3.88,34.04,0,9.53,2.71,8.52,8.47,23.68,14.8,6.39,2.67,13.57,5.67,16.28,2.96Z"/><path class="cls-12" d="m862.91,329.31c5.86-4.52,3.41-19.05-1.48-28.12-9-16.69-29.53-20.92-42.92-23.68-12.98-2.67-27.76-5.72-39.96,2.96-7.98,5.68-14.66,16.23-11.84,20.72,4.31,6.86,25.6-8.57,45.88,1.48,1.89.94,8.17,6.05,20.72,16.28,7.54,6.15,14.49,12.05,23.68,11.84,2.16-.05,4.16-.12,5.92-1.48Z"/><path class="cls-24" d="m919.78,567.89c.7-4.25-17.88-12.51-35.52-14.8-20.22-2.62-35.57,3.09-42.92,5.92-2.68,1.03-26.32,10.15-25.16,17.76.16,1.02,1.05,3.94,13.32,7.4,9.13,2.58,26.76,7.3,48.84,1.48,17.27-4.56,15.68-9.88,35.52-14.8,2.52-.63,5.65-1.31,5.92-2.96Z"/><path class="cls-13" d="m2889.84,1072.97c-21.93-26.78-66.16-19.69-75.01-18.27-51.39,8.23-66.75,50.53-118.49,49.94-14.86-.17-13.03-3.65-35.87-4.87-27.64-1.47-56.79-3.03-81.53,13.4-28.85,19.16-31.61,49.44-45.66,47.51-12.64-1.74-11.47-26.41-27.18-47.51-36.31-48.77-124.53-26.94-142.41-21.93-32.11,9-70.89,19.86-86.97,54.82-6.93,15.07-10.04,35.47-22.83,38.98-8.83,2.42-15.84-4.97-25-10.96-28.7-18.78-68.89-17.56-93.49-4.87-28.87,14.89-28.24,41.41-55.44,46.29-13.09,2.35-14.56-3.56-38.05-7.31-9.29-1.48-45.52-6.84-82.62,8.53-10.67,4.42-7.56,4.81-52.18,29.24-26.41,14.46-24.14,12.03-27.18,14.62-18.22,15.49-13.95,30.41-27.1,36.76-16.02,7.74-27.24-12.01-44.22-3.2-12.42,6.45-22.78,25.53-22.82,25.57h0c115.1,22.91,158.33,31.97,158.33,31.97,107.42,22.52,189.71,44.77,242.49,59.14,185.85,50.58,187.76,63.88,272.45,73.53,73.18,8.33,137.4,14.91,211.11-12.79,29.16-10.96,45.85-22.03,104.13-43.16,52.15-18.9,116.96-38.37,116.97-38.36h0s-3.01-173.26-2.85-175.82c5.38-88.62,20.82-117.56,1.43-141.24Z"/><path class="cls-2" d="m2367.09,377.42s-15.28-30.7-33.44-49.86c-31.82-33.57-79.83-39.5-84.97-40.07-19.18-2.12-48.35-5.35-68.25,9.5-11.86,8.85-16.83,21.45-27.98,21.07-5.16-.17-8.44-3.01-18.43-11.28-9.15-7.57-18.79-14.72-27.64-22.56-20.07-17.77-55.77-17.79-87.02-17.81-34.36-.02-68.96,6.67-83.27,17.81-3.91,3.04-20.5,17.48-21.35,24.29-.03.24-.12,1.14-.83,1.53-3.12,1.7-13.37-9-18.43-13.06-21.99-17.66-68.03-8.06-92.48,1.78-11.96,4.81-26.61,10.94-31.4,24.04-.73,2-3.35,9.53,0,17.81,8.05,19.87,44.37,28.79,44.36,28.79h0s109.01.31,220.11,1.78c43.56.57,85.12,1.37,168.24,2.97,71.01,1.36,162.78,3.26,162.78,3.26h0Z"/><path class="cls-3" d="m1654.99,255.18c11.08,2.32,24.49,6.2,28.68,1.59,4.04-4.44-.91-16.29-10.19-20.69-9.19-4.35-17.78.9-22.64-3.5-4.64-4.2.98-10.98,0-18.78-1.77-14.11-24.06-22.78-40.75-29.28-12.82-4.99-46.33-16.27-87.92-10.5-16.3,2.26-30.12,4.18-38.87,13.68-8.81,9.58-6.68,20.54-14.34,22.6-6.93,1.86-11.73-6.28-24.53-12.09-23.53-10.69-51.43-3.21-63.4,0-8.02,2.15-24.24,6.67-38.87,19.1-9.11,7.73-26.87,26.4-20.38,35.96,5.07,7.47,21.83,4.79,53.21,3.5,44.28-1.82,31.18,2.68,98.11,1.91,32.74-.38,22.94-1.31,95.85-3.5,50.16-1.51,75.45-2.22,86.04,0Z"/><path class="cls-35" d="m2103.62-39.81c-8.91-10.54-13.11-29.97-24-30-17.7-.05-22.49,51.2-44.77,54.01-20.06,2.52-28.16-37.51-54.01-38.77-25.31-1.24-55.9,35.27-54.01,66.01,1.28,20.75,16.71,28.48,12,40.16-8.23,20.43-60.88,10.24-66.01,27.23-3.89,12.91,24.45,25.55,20.77,40.62-3.98,16.33-39.35,10.14-50.77,31.39-9.44,17.54.23,48.61,18,57.24,20.83,10.11,46.03-13.91,64.16,0,6.32,4.85,3.78,8.17,10.62,13.39,17.58,13.43,39.85-4.34,52.62,6,12.89,10.43-1.81,35.01,10.62,44.77,11.78,9.25,28.11-10.38,55.39-2.77,13.34,3.72,13.96,9.68,33.23,14.77,7,1.85,26.43,6.99,32.77-1.38,2.5-3.3,2.55-8.14,2.56-9.72.08-8.35-4.92-13.38-3.95-14.28,1.71-1.58,13.3,17.31,30,21.23,25.17,5.91,46.86-25.7,58.62-18,6.22,4.07.41,13.08,6,26.77,9.88,24.17,42.63,31.9,60.01,36,19.61,4.63,34.28,8.09,44.77,0,15.22-11.74,7.07-36.54,19.85-42,8.34-3.57,13.45,6.3,34.16,12,25.54,7.03,48.19.4,54.01-1.38,17.42-5.34,29.19-14.6,30-13.39,1.25,1.85-31.39,15.59-36,40.16-3.6,19.15,9.92,44.37,30,54.01,29.27,14.04,56.23-12.84,76.62,3.23,12.54,9.88,4.67,21.87,19.85,36,15.05,14.01,37.1,15.56,52.16,16.62,24.2,1.7,29-4.47,40.62,1.38,15.2,7.66,11.91,20.69,27.23,33.23,21.08,17.25,51.54,12.43,54.01,12,30.03-5.18,40.3-28.28,60.01-22.62,7.73,2.22,9.02,6.6,16.62,12,24.98,17.76,62,6.62,74.78,2.77,45.44-13.68,93.2-56.56,90.01-96.01-1.3-16-10.78-29.09-4.15-36,6.27-6.55,18.66,1.1,36,1.38,27.07.45,60.52-17.13,67.39-38.77,11.58-36.47-55.92-73.15-43.39-103.39,8.75-21.12,45.74-13.08,52.16-30.46,11.59-31.41-94.38-98.02-132.01-121.4-67.08-41.66-115.66-71.84-192.02-98.78-80.19-28.29-215.31-75.97-367.88-42.47-116.98,25.69-240.03,98.18-274.64,57.24Z"/><path class="cls-34" d="m2159.01,36.82c-20.18-1.82-89.06-8.98-139.86,31.85-7.87,6.33-41.19,33.11-45.7,77.55-.54,5.34-5.39,53.17,21.69,72.01,25.33,17.62,58.57-4.04,79.85,18,8.35,8.65,4.27,13.06,13.85,24,19.54,22.33,58.4,28.93,70.16,15.69,9.35-10.53-.3-31.52,5.54-33.7,4.23-1.57,8.57,9.68,22.16,18,9.57,5.87,27.34,12.5,39.7,6,15.94-8.38,14.71-34.32,20.31-34.16,6.19.18,2.08,31.66,19.85,46.16,17.65,14.4,53.07,8.93,60.01-6,7.27-15.66-18.91-37.12-12-46.16,7.17-9.38,35.6,13.46,59.54,2.31,24.5-11.41,28.96-51.26,32.31-50.31,3.11.88-11.46,32.28,1.85,54.01,10.39,16.96,36.8,26.42,55.85,19.85,19.5-6.72,26.14-28.46,33.7-25.85,7.84,2.71.32,26,12,34.16,11.66,8.14,28.33-8.64,42,0,8.89,5.62,4.88,14.62,13.85,25.85,11.34,14.19,34.81,21.13,52.16,15.69,27.04-8.48,35.82-45.96,41.54-43.85,4.94,1.82-8.43,27.18,2.31,43.85,15.23,23.64,65.72,9.26,71.55,26.31,4.1,11.99-19.12,24.3-13.85,41.54,1.25,4.08,6.22,9.49,16.16,20.31,12.75,13.88,16.31,15.41,15.69,18-2.2,9.24-48.02-7.52-73.85,13.85-16.81,13.91-23.59,42.66-13.85,65.54,12.46,29.27,45.8,34.44,55.85,36,26.86,4.17,63.89-3.57,73.85-25.85,8.57-19.17-8.46-36.68,1.85-48,7.31-8.03,19.62-3.36,48-3.69,15.77-.18,38.16-.44,52.16-6,47.53-18.87,24.66-109.33,75.7-139.86,29.78-17.81,55.48,2.25,67.85-12,23.95-27.58-31.43-149.71-123.7-223.41-202.8-161.96-473.95-2.22-756.07-27.69Z"/><path class="cls-19" d="m2378.03,623.26c40.26,90.46,37.47,163.66,40.62,225.25,6.85,133.96,38.87,155.6,49.85,329.11,2.3,36.37,3.64,78.76-20.31,119.55-28.54,48.61-78.8,70.77-74.31,78.93,3.02,5.49,24.66-6.55,72.01-13.39,39.68-5.73,41.58.26,78.93-6.92,21.6-4.15,30.74-8.03,49.39-6.92,17.09,1.02,23.65,5.12,42.93,9.23,21.2,4.52,36.77,4.56,60.93,4.62,44.23.11,101.39-6.08,101.55-13.85.06-3.08-8.89-3.58-42.93-15.69-28.57-10.17-38.82-15.7-42.93-18-10.16-5.7-22.98-12.89-31.39-22.62-18.33-21.22-13.31-51.8-11.54-74.31,3.66-46.64-6.49-87.4-26.77-168.94-15.74-63.25-29.05-80.04-18-108.47,8.49-21.85,19.66-20.47,51.7-54.01,17.55-18.37,75.16-78.67,67.39-139.86-1.5-11.8-6.12-29.07-11.08-29.08-4.43,0-6.75,13.78-13.39,36-9.66,32.36-15.06,50.45-27.23,67.85-13.87,19.83-19.09,13.85-42.93,42.47-17.19,20.64-22.33,33.18-29.08,31.85-7.54-1.48-9.32-18.73-13.39-45.24,0,0-5.31-34.61-16.16-85.85-5.26-24.84-11.87-48.86-24.46-94.62-6.75-24.52-10.58-37.3-9.23-56.31,1.64-23.27,9.93-40.21,15.69-51.7,20.6-41.07,52.02-63.63,60.93-69.7,21.63-14.72,45.96-22.59,94.62-38.31,32.16-10.39,52.6-14.96,52.16-20.31-.46-5.49-22.65-8.71-38.31-9.23-63.54-2.13-112.94,36.86-126.47,47.54-27.37,21.6-50.51,39.87-60.93,72.01-5.87,18.11-6.16,35.87-18,40.62-9.34,3.75-18.02-3.75-38.31-15.69-53.45-31.46-74.6-27.35-83.55-49.85-5.33-13.41-2.32-26.16,0-36,7.99-33.88,35.92-52.06,42.93-56.31,25.84-15.68,35.05-4.53,83.55-18,26-7.22,45.16-16.48,67.39-27.23,42.82-20.7,35.02-23.63,60.93-33.7,32.93-12.79,50.69-10.07,99.24-29.08,22.42-8.78,23.28-11.18,23.08-12-.91-3.75-29.93-.84-54.01,4.15-25.68,5.32-47.93,14.54-91.39,32.77-39.48,16.56-59.21,24.84-62.31,26.31-27.09,12.88-36.87,19.52-41.08,15.69-7.29-6.62,8.1-39.2,27.69-61.85,15.95-18.44,36.97-32.93,42.93-36.93,14.45-9.69,21.88-12.33,32.77-23.54,9.88-10.17,23.38-28.18,18.92-34.16-3.17-4.26-15.45-2.44-23.08,3.69-7.19,5.78-6.88,12.67-11.08,20.77-7.3,14.09-20.41,16.74-36,25.39-23.27,12.9-36.65,30.56-49.85,48-21.8,28.8-16.62,38.67-36,53.08-13.74,10.21-27.52,13.57-43.85,17.54-22.59,5.5-27.21,1.55-28.62,0-3.92-4.32-2.27-11.47,0-20.77,10.35-42.37,13.15-52.41,14.31-61.85,1.71-13.97-.95-20.47-5.54-44.77-15.53-82.19-4.88-112.19-26.31-125.09-10.87-6.54-26.57-6.62-32.31,0-5.71,6.59.2,17.78,6,37.85,8.35,28.88,9.43,51.77,10.62,77.08.99,21.04-.7,35.87-3.23,58.16-4.09,35.97-10.43,59.38-21.69,100.16-13.24,47.94-18.78,56.11-26.77,58.16-8.02,2.06-12.72-3.52-38.31-20.77-41.93-28.26-57.47-32.26-60.47-48.47-1.55-8.39,1.71-12.22,5.54-25.39,7.03-24.15,2.79-34.34,2.31-75.7-.72-62.16,8.29-87.92-6.92-97.86-1.01-.66-7.16-4.54-12-2.31-4.9,2.26-7.74,10.47-5.08,45.24,2.76,36.03,6.88,41.08,7.39,68.31.15,8.07-.67,18.61-2.31,39.7-2.11,27.13-3.69,33.47-7.85,35.08-5.57,2.16-12.75-5.33-23.08-15.23-38.65-37.03-42.05-31.6-53.54-47.54-12.35-17.13-15.16-33.42-20.77-66.01-10.2-59.21-1.22-94.19-17.54-101.09-6.77-2.86-17.16-.59-18.92,3.69-1.41,3.42,3.23,6.82,6.46,14.77,3.71,9.15,2.6,17.03,2.31,22.16-.99,17.42,3.4,76.45,24.46,120.01,6.34,13.1,13.93,24.64,38.31,51.24,99.24,108.27,162.79,126.85,213.25,222.48,5.36,10.16,8.74,17.72,11.54,24Z"/><path class="cls-34" d="m-509.12,323.54c4.23,10.69,15.74,39.82,38.72,51.01,12.67,6.17,32.76,8.81,40.49-4.86,9.27-16.41-4.33-47.36.59-51.01,6.13-4.56,23.64,46.41,44.59,43.73,10.17-1.3,18.84-14.96,22.3-26.72,6.81-23.19-4.31-46.99,0-50.2,3.54-2.64,9.22,14.73,22.88,21.05,14.01,6.49,33.27-.1,41.07-16.19,8.56-17.65-.06-39.72,5.87-43.73,5.59-3.78,12.52,16.33,30.51,25.91,17.2,9.15,33.75,2.96,41.66,0,9.74-3.64,31.63-11.83,40.49-36.44,7.52-20.9,1.11-41.05,8.8-46.15,3.66-2.43,6.37,1.31,18.19,6.48,15,6.56,25.4,11.1,31.1,5.67,10.46-9.98-1.22-47.55,6.45-52.63,5.14-3.4,11.21,12.88,28.75,21.05,6.41,2.98,19.58,9.12,28.75,1.62,17.09-13.97,8.97-66,17.02-68.02,4.36-1.09,6.85,14.13,17.02,25.91,15.04,17.44,36.05,14.78,44.01,13.77,46.75-5.93,75.95-68.65,83.9-59.92,1.87,2.06,1.02,6.37,0,16.19-1.19,11.47-5.61,54.22,1.76,80.97,4.69,17.01,17.68,40.39,32.86,41.3,19.61,1.17,29.49-35.98,52.22-32.39,6.22.98,5.51,3.77,15.26,6.48,5.79,1.61,25.52,7.09,37.55-4.05,18.27-16.91,11.44-65.33,18.78-66.4,3.08-.45,4.61,8.01,11.73,21.05,2.27,4.15,12.42,22.74,25.82,31.58,14.34,9.46,33.68,8.58,48.11-2.43,19.14-14.6,20.37-39.94,34.03-40.49,6.93-.28,7.67,6.2,19.95,14.58,3.86,2.63,28.01,19.11,50.46,8.91,16.38-7.44,22.34-24.77,30.51-20.24,4.11,2.28,4.17,7.54,9.39,20.24,2.16,5.27,9.96,24.25,21.12,34.82,8.25,7.81,24.09,16.46,36.96,8.91,19.55-11.48,17.35-51.59,29.34-53.44,10.27-1.59,12.8,27.69,34.62,47.77,14.7,13.53,40.31,24.88,58.09,11.34,19.27-14.68,18.89-50.63,34.03-52.63,6.64-.88,11.71,5.37,16.43,10.53,21.26,23.21,59.76,50.58,89.77,43.73,23.65-5.4,40.89-31.77,42.83-34.82,13.96-21.87,14.9-42.82,29.34-49.39,8.09-3.68,12.97.54,26.4,4.05,8.86,2.31,34.13,8.9,55.15-.81,22.31-10.31,41.3-39.65,58.09-65.59,2.53-3.91,5.87-9.28,11.73-13.77,13.8-10.55,24.26-2.91,39.9-4.86,20.02-2.49,42.25-19.89,46.94-42.11,0,0,3.92-18.59-8.21-43.73-35.66-73.82-393.26-37.86-535.11-29.15-7.79.48,3.91-.28-533.35-15.38-127.72-3.59-256.24,32.39-383.14,12.15-50.54-8.06-94.15-19.21-133.78,17-86.65,79.19-67.9,305.98-38.72,379.76Z"/><path class="cls-25" d="m804.9,853.39c-3.34-.69-5.49,13.91-17.73,22.68-15.8,11.32-45.1,10.55-54.98-.78-6.97-8,.15-16.17-7.98-24.24-9-8.93-22.86-4.03-26.6-10.95-4.96-9.18,16.06-24.06,10.64-31.28-3.08-4.1-11.69-1.75-13.3-5.47-2.2-5.08,13.02-11.32,11.53-17.99-1.5-6.68-17.76-4.96-23.06-14.08-4.96-8.55,3.34-20.38,4.43-21.9,10.57-14.67,28.2-12.44,32.81-25.03,2.66-7.25-2.1-10.95,1.77-14.86,7.15-7.21,26.77,1.91,31.92-4.69,2.79-3.58-2.29-7.12,0-11.73,1.95-3.93,7.87-5.84,47-7.04,16.2-.5,21.05-.35,27.49,1.56,12.11,3.59,22.36,11.18,21.28,13.3-.82,1.63-7.81-.97-8.87.78-1.85,3.06,14.42,19.43,36.36,23.46,8.03,1.48,12.11.43,15.96,3.91,5.83,5.26,1.73,12.37,8.87,20.33,3.83,4.27,6,3.33,7.98,7.04,3.45,6.46-.2,14.8-4.43,19.55-1.69,1.9-5.75,6.45-12.21,7.66-2.1.39-3.19.19-3.75.95-2.24,3.03,12.12,10.49,10.64,17.99-1.17,5.94-11.24,6.52-11.53,11.73-.3,5.4,10.42,6.6,11.53,13.3.92,5.57-5.44,11.13-14.19,18.77-7.44,6.5-9.61,6.38-11.53,10.17-4.14,8.19,3.47,13.8.89,19.55-5.62,12.52-54.6,14.9-66.51-2.35-5.84-8.46-1.43-19.72-4.43-20.33Z"/><path class="cls-26" d="m860.67,808.82c-2.65.3-3.78-4.01-7.16-4.04-2.67-.03-3.04,2.64-8.36,5.05-.97.44-2.63.97-5.97,2.02-4.8,1.52-6.21,1.73-7.16,3.03-1.11,1.54,0,2.4-1.19,4.04-1.47,2.01-3.6,1.36-4.77,3.03-1.51,2.16.17,5.91,2.39,8.08,1.83,1.8,3.16,1.68,3.58,3.03.72,2.33-2.9,3.64-2.39,6.06.49,2.29,3.96,2.28,4.77,5.05.59,2.01-.9,3.2,0,4.04,1.32,1.24,4.71-1.19,7.16,0,2.79,1.35.45,5.49,3.58,8.08,2.9,2.4,7.79,1.26,8.36,3.03.37,1.17-1.63,2.04-1.19,3.03.72,1.61,6.32-.06,8.36,2.02,2.13,2.17-1.99,6.05,0,8.08,1.75,1.79,7.41,1.31,10.74-1.01,2.96-2.07,2.51-4.5,4.77-5.05,3.33-.81,6.85,3.83,8.36,3.03,1.73-.91-2.43-7.27,0-9.1,2.01-1.51,6.62,1.51,8.36,0,1.77-1.54-2.15-5.42,0-8.08,1.42-1.75,4.13-1.31,4.77-3.03.56-1.49-1.33-2.24-1.19-4.04.21-2.82,4.94-3.01,5.97-6.06.93-2.77-1.69-6.45-4.77-8.08-2.82-1.5-4.62-.55-5.97-2.02-1.61-1.76.48-3.62,0-8.08-.17-1.58-.59-5.41-3.58-7.07-2.05-1.14-3.12-.05-5.97-1.01-3.16-1.07-3.18-2.88-7.16-6.06-2.78-2.22-5.77-4.62-8.36-4.04-3.32.74-3.15,5.74-5.97,6.06Z"/><path class="cls-32" d="m813.57,688.2c-2.64.26-3.76-3.47-7.12-3.5-2.66-.03-3.02,2.29-8.31,4.37-.96.38-2.62.84-5.94,1.75-4.78,1.31-6.18,1.49-7.12,2.62-1.11,1.33,0,2.07-1.19,3.5-1.46,1.74-3.58,1.18-4.75,2.62-1.5,1.87.17,5.11,2.37,6.99,1.82,1.56,3.14,1.45,3.56,2.62.72,2.01-2.89,3.15-2.37,5.25.48,1.98,3.94,1.97,4.75,4.37.59,1.74-.89,2.77,0,3.5,1.32,1.08,4.68-1.03,7.12,0,2.77,1.17.44,4.75,3.56,6.99,2.88,2.07,7.75,1.09,8.31,2.62.37,1.01-1.63,1.77-1.19,2.62.71,1.4,6.29-.05,8.31,1.75,2.12,1.88-1.98,5.23,0,6.99,1.75,1.55,7.38,1.14,10.69-.87,2.95-1.79,2.49-3.89,4.75-4.37,3.31-.7,6.81,3.31,8.31,2.62,1.72-.79-2.41-6.29,0-7.87,2-1.31,6.59,1.31,8.31,0,1.76-1.33-2.14-4.69,0-6.99,1.41-1.52,4.11-1.13,4.75-2.62.56-1.29-1.32-1.94-1.19-3.5.2-2.44,4.92-2.6,5.94-5.25.92-2.4-1.68-5.58-4.75-6.99-2.81-1.3-4.59-.47-5.94-1.75-1.6-1.52.48-3.13,0-6.99-.17-1.37-.58-4.68-3.56-6.12-2.04-.99-3.1-.04-5.94-.87-3.15-.93-3.17-2.49-7.12-5.25-2.76-1.92-5.74-4-8.31-3.5-3.3.64-3.13,4.97-5.94,5.25Z"/><path class="cls-20" d="m830.51,862.89c.13-1.99,4.1-2.03,4.64-4.49.43-1.94-1.87-2.7-3.19-7.02-.24-.79-.45-2.1-.88-4.72-.62-3.78-.58-4.85-1.59-5.78-1.18-1.09-2.11-.43-3.38-1.61-1.55-1.44-.66-2.88-1.95-4.04-1.67-1.5-5.23-.95-7.48.28-1.87,1.01-1.95,2-3.21,2.06-2.16.1-2.77-2.78-4.98-2.84-2.09-.06-2.6,2.48-5.17,2.57-1.86.06-2.68-1.24-3.56-.73-1.3.74.34,3.65-1.08,5.23-1.61,1.79-4.9-.67-7.66,1.15-2.55,1.68-2.28,5.46-3.93,5.55-1.09.06-1.55-1.56-2.49-1.42-1.53.23-.9,4.62-3.04,5.73-2.24,1.16-5.03-2.55-7.12-1.47-1.84.96-2.27,5.17-.73,8.03,1.38,2.54,3.59,2.65,3.73,4.4.21,2.58-4.4,4.3-3.93,5.55.54,1.43,6.77-.45,8.01,1.65,1.03,1.74-2.33,4.56-1.26,6.1,1.09,1.57,5.1-.59,7.12,1.47,1.33,1.35.53,3.25,1.95,4.04,1.23.68,2.17-.56,3.74-.14,2.45.66,1.9,4.16,4.44,5.46,2.3,1.18,5.93-.07,7.84-2.02,1.75-1.79,1.18-3.27,2.68-3.99,1.79-.86,3.12,1.01,7.12,1.47,1.42.16,4.85.55,6.77-1.33,1.31-1.29.51-2.27,1.79-4.17,1.42-2.11,3.01-1.8,6.42-4.13,2.38-1.62,4.94-3.37,4.82-5.37-.15-2.55-4.59-3.34-4.44-5.46Z"/><path class="cls-28" d="m760.41,759.55c-2.22,1.49-5.2-1.81-8.22-.29-2.38,1.2-1.48,3.74-5.08,8.34-.66.84-1.89,2.07-4.36,4.55-3.56,3.56-4.72,4.4-4.96,5.99-.28,1.88,1.11,2.12.8,4.14-.38,2.46-2.57,2.87-2.84,4.89-.35,2.61,2.88,5.16,5.85,6.07,2.46.76,3.58.03,4.58,1.04,1.71,1.73-.9,4.57.68,6.48,1.49,1.81,4.57.2,6.57,2.28,1.45,1.51.68,3.25,1.86,3.59,1.75.49,3.63-3.23,6.36-3.3,3.1-.08,2.93,4.67,6.91,5.52,3.68.79,7.49-2.48,8.81-1.16.87.87-.51,2.56.34,3.24,1.38,1.1,5.58-2.96,8.35-2.06,2.89.95,1.02,6.28,3.73,7.17,2.38.78,7.19-2.25,9.07-5.85,1.67-3.2.15-5.15,1.91-6.69,2.58-2.25,7.84.24,8.81-1.16,1.12-1.61-5.5-5.33-4.19-8.07,1.08-2.26,6.57-1.71,7.41-3.85.86-2.18-4.41-3.82-3.73-7.17.45-2.21,3.06-3.07,2.84-4.89-.19-1.58-2.21-1.37-2.92-3.04-1.12-2.59,3-4.95,2.5-8.13-.45-2.89-4.47-4.94-7.96-4.97-3.19-.03-4.35,1.64-6.23.96-2.24-.82-1.24-3.44-3.73-7.17-.88-1.33-3.01-4.53-6.44-4.63-2.35-.07-2.79,1.4-5.76,1.85-3.3.51-4.15-1.09-9.15-2.08-3.49-.69-7.25-1.44-9.28.27-2.6,2.19-.14,6.55-2.5,8.13Z"/><path class="cls-20" d="m745.21,704.66c-1.07.99-3.24-1.08-4.76-.06-1.2.81-.33,2.42-1.78,5.41-.26.54-.8,1.35-1.88,2.97-1.56,2.33-2.11,2.88-2.03,3.91.1,1.2.93,1.34,1.03,2.63.12,1.58-1.08,1.87-.96,3.17.16,1.68,2.36,3.26,4.19,3.8,1.52.45,2.06-.03,2.77.6,1.22,1.08.11,2.93,1.28,4.14,1.1,1.14,2.65.06,4.09,1.36,1.04.95.84,2.07,1.56,2.27,1.07.29,1.64-2.12,3.2-2.21,1.77-.1,2.32,2.94,4.73,3.43,2.22.45,3.97-1.69,4.9-.87.62.54.06,1.65.64,2.07.94.68,2.8-1.98,4.51-1.44,1.79.56,1.45,4.01,3.13,4.53,1.48.47,3.82-1.55,4.41-3.87.52-2.07-.62-3.3.18-4.3,1.17-1.48,4.54.04,4.9-.87.42-1.04-3.9-3.33-3.52-5.1.31-1.46,3.54-1.19,3.73-2.57.19-1.41-3.06-2.38-3.13-4.53-.05-1.42,1.34-2.01.96-3.17-.33-1.01-1.46-.85-2.1-1.9-1-1.64,1.04-3.21.32-5.24-.66-1.84-3.25-3.09-5.26-3.06-1.84.03-2.27,1.11-3.45.7-1.4-.49-1.18-2.18-3.13-4.53-.69-.84-2.35-2.85-4.34-2.87-1.36,0-1.41.94-3.06,1.27-1.83.37-2.53-.63-5.54-1.2-2.1-.39-4.36-.82-5.29.31-1.19,1.44.82,4.19-.32,5.24Z"/><path class="cls-29" d="m734.34,876.32c2.32.21,2.61,3.83,5.5,4.44,2.28.48,3.02-1.59,7.96-2.61.9-.19,2.41-.32,5.44-.6,4.36-.4,5.6-.32,6.62-1.2,1.2-1.03.37-1.91,1.66-3.02,1.57-1.35,3.3-.47,4.57-1.61,1.64-1.46.78-4.74-.77-6.85-1.29-1.75-2.45-1.87-2.59-3.02-.25-1.98,3.06-2.41,3-4.43-.05-1.91-3.04-2.49-3.3-4.84-.19-1.7,1.27-2.4.64-3.22-.94-1.22-4.22.15-6.14-1.22-2.18-1.55.48-4.45-1.79-7.05-2.11-2.4-6.48-2.32-6.68-3.83-.13-.99,1.72-1.35,1.5-2.21-.36-1.41-5.43-1.03-6.84-3.03-1.48-2.09,2.66-4.48,1.28-6.44-1.22-1.73-6.15-2.31-9.37-1.02-2.87,1.15-2.86,3.16-4.89,3.22-2.98.08-5.27-4.21-6.68-3.83-1.63.43.93,6.21-1.44,7.25-1.96.86-5.44-2.33-7.16-1.42-1.76.93.99,4.69-1.28,6.44-1.49,1.16-3.75.34-4.57,1.61-.72,1.1.78,2.01.39,3.42-.62,2.21-4.71,1.56-6.07,3.82-1.23,2.05.43,5.42,2.82,7.25,2.18,1.67,3.87,1.22,4.8,2.62,1.11,1.68-.99,2.8-1.28,6.44-.1,1.29-.35,4.41,1.95,6.25,1.58,1.26,2.67.57,4.96,1.82,2.54,1.39,2.27,2.83,5.18,6.05,2.03,2.24,4.22,4.66,6.52,4.64,2.96-.03,3.6-4.04,6.07-3.82Z"/><path class="cls-29" d="m835.28,722.96c-2,1.77-5.39-1.12-8.19.79-2.2,1.51-.97,3.9-3.95,8.93-.54.92-1.6,2.3-3.73,5.08-3.06,4-4.1,4.98-4.13,6.59-.03,1.9,1.38,1.96,1.34,4-.05,2.48-2.17,3.18-2.17,5.22,0,2.63,3.53,4.74,6.59,5.26,2.54.43,3.55-.44,4.67.43,1.92,1.49-.29,4.64,1.52,6.34,1.71,1.6,4.55-.4,6.81,1.4,1.64,1.31,1.1,3.14,2.32,3.31,1.8.26,3.18-3.68,5.87-4.11,3.06-.49,3.51,4.24,7.57,4.57,3.75.3,7.11-3.44,8.58-2.31.97.75-.17,2.61.76,3.17,1.51.91,5.14-3.67,8-3.13,2.99.56,1.83,6.1,4.63,6.62,2.47.46,6.83-3.17,8.22-6.99,1.24-3.39-.53-5.13,1.02-6.88,2.27-2.57,7.8-.79,8.58-2.31.9-1.74-6.16-4.57-5.21-7.45.78-2.39,6.29-2.56,6.85-4.79.56-2.27-4.87-3.21-4.63-6.62.16-2.25,2.63-3.44,2.17-5.22-.4-1.55-2.37-1.07-3.3-2.63-1.45-2.43,2.33-5.3,1.41-8.39-.83-2.81-5.08-4.31-8.55-3.89-3.17.39-4.1,2.2-6.05,1.77-2.33-.52-1.68-3.24-4.63-6.62-1.05-1.2-3.58-4.1-6.99-3.74-2.34.24-2.58,1.75-5.47,2.59-3.21.93-4.26-.53-9.34-.86-3.55-.23-7.38-.48-9.16,1.48-2.29,2.51.72,6.51-1.41,8.39Z"/><path class="cls-33" d="m691.9,769.95c-.64,2.59-5.07,2.15-6.28,5.31-.95,2.49,1.42,3.76,1.84,9.59.08,1.06,0,2.81-.18,6.3-.24,5.03-.54,6.43.36,7.77,1.05,1.58,2.25.82,3.38,2.52,1.37,2.07.03,3.85,1.19,5.53,1.5,2.17,5.6,1.89,8.41.57,2.33-1.09,2.67-2.38,4.09-2.31,2.43.13,2.41,3.98,4.86,4.34,2.32.34,3.51-2.93,6.4-2.72,2.09.15,2.69,1.95,3.79,1.4,1.63-.81.52-4.83,2.49-6.72,2.24-2.15,5.3,1.49,8.83-.55,3.25-1.89,3.88-6.87,5.74-6.78,1.23.06,1.35,2.24,2.43,2.17,1.76-.11,2.14-5.95,4.8-7.13,2.78-1.24,4.98,3.97,7.58,2.81,2.29-1.02,3.81-6.5,2.78-10.43-.91-3.5-3.35-3.91-3.08-6.23.4-3.41,5.96-5.09,5.74-6.78-.25-1.94-7.66-.25-8.53-3.16-.72-2.41,3.72-5.68,2.9-7.84-.83-2.19-5.83.14-7.58-2.81-1.15-1.94.2-4.33-1.19-5.53-1.21-1.04-2.56.47-4.21-.28-2.57-1.17-1.1-5.68-3.62-7.7-2.28-1.83-6.63-.65-9.24,1.67-2.39,2.12-2.11,4.14-3.97,4.9-2.21.9-3.23-1.71-7.58-2.81-1.55-.39-5.28-1.33-7.88.9-1.78,1.53-1.13,2.91-3.02,5.25-2.1,2.59-3.8,1.99-8.17,4.61-3.05,1.83-6.34,3.81-6.69,6.43-.46,3.37,4.3,4.94,3.62,7.7Z"/><path class="cls-4" d="m786.96,890.45c-6.08-6.7-4.88-18.98-2.49-43.52.84-8.59,2.77-21.61,6.63-47.67.52-3.51.75-5.04,1.16-7.93,2.84-20.35,3.13-29.38,3.82-29.37,1.22,0-2.99,28.36,5.8,63,5.43,21.39,11.19,38.96,11.19,38.96,6.39,19.49,9.79,26.16,6.22,30.67-5.35,6.75-23.7,5.36-32.33-4.14Z"/><polygon class="cls-4" points="791.29 853.23 745.51 804.24 794.42 872.21 791.29 853.23"/><polygon class="cls-4" points="792.29 823.86 744.64 755.68 794.42 816.17 792.29 823.86"/><polygon class="cls-4" points="796.91 828.28 820.74 785.9 796.91 838.22 796.91 828.28"/><polygon class="cls-4" points="803.98 865.42 835.2 807.61 803.98 882.33 803.98 865.42"/><path class="cls-4" d="m785.85,1003.55c10.91,3.24,30.38,1.53,38.59-3.52,7.97-4.9,4.26-12.27,1.99-17.71-12.47-29.93-8.67-67.5-7.45-79.56.65-6.39,2.12-15.82-6.95-25.05-6.18-6.28-18.58-13.83-25.3-11.96-10.62,2.95,6.15,25.71,4.74,61.78-1.72,43.71-28.67,69.17-5.61,76.02Z"/><path class="cls-25" d="m2745.43,1211.86c-10.27-1.46-16.86,29.47-54.48,48.06-48.55,23.99-138.54,22.36-168.89-1.66-21.41-16.94.46-34.28-24.52-51.38-27.63-18.92-70.23-8.54-81.72-23.2-15.24-19.46,49.34-50.99,32.69-66.29-9.45-8.69-35.91-3.71-40.86-11.6-6.75-10.76,40-23.98,35.41-38.12-4.59-14.16-54.56-10.51-70.82-29.83-15.24-18.11,10.26-43.19,13.62-46.4,32.48-31.08,86.62-26.35,100.79-53.03,8.16-15.36-6.46-23.21,5.45-31.49,21.95-15.28,82.22,4.05,98.06-9.94,8.58-7.58-7.05-15.08,0-24.86,6-8.32,24.16-12.38,144.37-14.92,49.78-1.05,64.66-.73,84.44,3.31,37.19,7.61,68.68,23.68,65.38,28.17-2.53,3.45-23.99-2.06-27.24,1.66-5.68,6.49,44.3,41.17,111.68,49.72,24.68,3.13,37.2.92,49.03,8.29,17.9,11.15,5.3,26.22,27.24,43.09,11.76,9.04,18.43,7.07,24.52,14.92,10.61,13.68-.62,31.37-13.62,41.43-5.2,4.02-17.66,13.67-37.52,16.22-6.46.83-9.8.41-11.51,2.01-6.87,6.42,37.24,22.23,32.69,38.12-3.61,12.6-34.54,13.81-35.41,24.86-.91,11.45,32,13.99,35.41,28.17,2.84,11.81-16.71,23.58-43.58,39.78-22.87,13.78-29.53,13.52-35.41,21.54-12.71,17.36,10.65,29.24,2.72,41.43-17.25,26.53-167.73,31.58-204.3-4.97-17.93-17.93-4.38-41.78-13.62-43.09Z"/><path class="cls-32" d="m2772.04,861.8c-8.11.55-11.55-7.34-21.89-7.41-8.16-.05-9.28,4.84-25.53,9.26-2.96.8-8.05,1.77-18.24,3.71-14.67,2.79-18.99,3.16-21.89,5.56-3.4,2.81.03,4.4-3.65,7.41-4.48,3.68-11.01,2.49-14.59,5.56-4.62,3.96.53,10.83,7.3,14.82,5.61,3.31,9.66,3.07,10.94,5.56,2.2,4.27-8.86,6.67-7.3,11.12,1.48,4.2,12.11,4.18,14.59,9.26,1.8,3.69-2.74,5.86,0,7.41,4.04,2.28,14.39-2.18,21.89,0,8.52,2.48,1.36,10.07,10.94,14.82,8.86,4.4,23.81,2.3,25.53,5.56,1.13,2.14-4.99,3.74-3.65,5.56,2.19,2.96,19.31-.11,25.53,3.71,6.51,3.99-6.09,11.08,0,14.82,5.36,3.29,22.66,2.41,32.83-1.85,9.05-3.79,7.66-8.25,14.59-9.26,10.18-1.48,20.92,7.01,25.53,5.56,5.29-1.67-7.41-13.33,0-16.67,6.13-2.77,20.23,2.77,25.53,0,5.4-2.82-6.58-9.94,0-14.82,4.34-3.22,12.61-2.4,14.59-5.56,1.71-2.74-4.05-4.1-3.65-7.41.63-5.16,15.11-5.51,18.24-11.12,2.84-5.09-5.17-11.82-14.59-14.82-8.62-2.75-14.11-1-18.24-3.71-4.93-3.23,1.48-6.64,0-14.82-.52-2.9-1.79-9.92-10.94-12.97-6.27-2.09-9.54-.08-18.24-1.85-9.66-1.97-9.72-5.27-21.89-11.12-8.49-4.08-17.63-8.47-25.53-7.41-10.13,1.36-9.61,10.53-18.24,11.12Z"/><path class="cls-20" d="m2824.09,1231.98c.41-4.22,12.58-4.31,14.25-9.52,1.31-4.12-5.74-5.71-9.81-14.87-.74-1.67-1.4-4.45-2.71-10.01-1.89-8.01-1.8-10.28-4.89-12.24-3.64-2.31-6.49-.91-10.39-3.4-4.75-3.04-2.02-6.1-6-8.55-5.14-3.17-16.06-2-22.98.58-5.73,2.14-5.99,4.25-9.86,4.37-6.63.22-8.5-5.89-15.3-6.03-6.42-.13-8,5.25-15.88,5.44-5.72.14-8.24-2.62-10.94-1.55-3.98,1.57,1.05,7.74-3.31,11.08-4.95,3.79-15.06-1.42-23.53,2.43-7.83,3.56-7,11.57-12.06,11.76-3.33.12-4.77-3.31-7.65-3.01-4.7.49-2.76,9.8-9.33,12.15-6.87,2.46-15.44-5.41-21.87-3.11-5.67,2.02-6.98,10.96-2.23,17.01,4.23,5.38,11.02,5.61,11.46,9.33.65,5.46-13.52,9.12-12.06,11.76,1.67,3.03,20.79-.96,24.61,3.5,3.16,3.68-7.15,9.66-3.86,12.93,3.35,3.32,15.67-1.24,21.87,3.11,4.09,2.87,1.63,6.89,6,8.55,3.78,1.44,6.67-1.19,11.49-.29,7.52,1.4,5.85,8.8,13.65,11.56,7.08,2.51,18.22-.14,24.08-4.28,5.36-3.79,3.61-6.93,8.23-8.46,5.51-1.82,9.57,2.14,21.87,3.11,4.37.34,14.91,1.17,20.79-2.82,4.04-2.74,1.56-4.81,5.49-8.84,4.36-4.48,9.25-3.82,19.72-8.75,7.3-3.44,15.17-7.15,14.8-11.37-.47-5.41-14.09-7.07-13.65-11.56Z"/><path class="cls-28" d="m2608.76,1013c-6.81,3.16-15.98-3.84-25.25-.6-7.32,2.55-4.53,7.93-15.62,17.67-2.02,1.77-5.81,4.39-13.41,9.63-10.94,7.55-14.5,9.32-15.23,12.7-.86,3.98,3.42,4.5,2.47,8.77-1.16,5.21-7.89,6.08-8.72,10.37-1.07,5.53,8.84,10.94,17.96,12.87,7.56,1.6,10.99.06,14.06,2.2,5.26,3.67-2.75,9.68,2.08,13.73,4.57,3.84,14.03.41,20.17,4.84,4.46,3.21,2.08,6.89,5.73,7.6,5.37,1.05,11.15-6.84,19.52-7,9.52-.18,8.99,9.89,21.21,11.7,11.3,1.68,23.02-5.25,27.07-2.46,2.67,1.84-1.56,5.43,1.04,6.87,4.24,2.33,17.14-6.28,25.64-4.36,8.89,2.01,3.13,13.32,11.45,15.2,7.33,1.66,22.07-4.77,27.85-12.4,5.14-6.78.46-10.92,5.86-14.17,7.93-4.78,24.08.51,27.07-2.46,3.43-3.41-16.91-11.3-12.88-17.1,3.33-4.8,20.19-3.62,22.78-8.16,2.63-4.62-13.55-8.1-11.45-15.2,1.38-4.69,9.4-6.5,8.72-10.37-.59-3.36-6.78-2.91-8.98-6.44-3.43-5.5,9.22-10.49,7.68-17.23-1.4-6.13-13.75-10.47-24.47-10.54-9.81-.06-13.36,3.48-19.13,2.03-6.89-1.73-3.81-7.28-11.45-15.2-2.71-2.81-9.26-9.6-19.78-9.8-7.21-.14-8.57,2.96-17.7,3.93-10.14,1.07-12.75-2.3-28.11-4.4-10.72-1.47-22.27-3.05-28.5.56-7.99,4.63-.44,13.87-7.68,17.23Z"/><path class="cls-20" d="m2562.05,896.68c-3.28,2.09-9.94-2.29-14.63-.13-3.7,1.71-1.03,5.12-5.46,11.46-.81,1.15-2.47,2.87-5.79,6.3-4.78,4.94-6.47,6.11-6.22,8.28.3,2.55,2.86,2.84,3.17,5.58.37,3.34-3.33,3.97-2.95,6.72.49,3.55,7.26,6.91,12.88,8.05,4.66.95,6.33-.07,8.51,1.27,3.75,2.3.34,6.22,3.93,8.76,3.39,2.41,8.14.12,12.55,2.89,3.2,2.01,2.57,4.39,4.8,4.8,3.29.62,5.04-4.49,9.82-4.67,5.44-.21,7.14,6.23,14.52,7.27,6.82.96,12.18-3.59,15.06-1.85,1.9,1.15.18,3.49,1.97,4.38,2.9,1.45,8.6-4.19,13.86-3.05,5.51,1.19,4.45,8.49,9.61,9.61,4.54.99,11.73-3.28,13.54-8.21,1.6-4.39-1.91-6.99.55-9.12,3.61-3.14,13.94.08,15.06-1.85,1.29-2.21-11.97-7.06-10.81-10.81.96-3.1,10.88-2.52,11.46-5.45.59-2.98-9.4-5.04-9.61-9.61-.14-3.01,4.11-4.25,2.95-6.72-1.01-2.14-4.48-1.79-6.44-4.03-3.06-3.48,3.21-6.8.98-11.1-2.02-3.9-9.98-6.56-16.16-6.49-5.65.06-6.98,2.36-10.59,1.49-4.3-1.04-3.64-4.62-9.61-9.61-2.12-1.77-7.23-6.05-13.32-6.07-4.17-.02-4.33,1.98-9.39,2.69-5.61.79-7.78-1.34-17.03-2.53-6.45-.83-13.4-1.73-16.26.65-3.67,3.04,2.51,8.88-.98,11.1Z"/><path class="cls-29" d="m2528.65,1260.44c7.13.45,8.01,8.12,16.9,9.4,7.01,1.01,9.27-3.37,24.45-5.53,2.76-.39,7.41-.68,16.7-1.27,13.38-.84,17.2-.68,20.33-2.54,3.68-2.19,1.14-4.05,5.1-6.4,4.84-2.86,10.15-1,14.04-3.4,5.03-3.1,2.41-10.04-2.37-14.51-3.95-3.71-7.51-3.97-7.96-6.41-.77-4.19,9.4-5.1,9.23-9.38-.17-4.04-9.33-5.28-10.12-10.25-.58-3.61,3.91-5.08,1.96-6.83-2.88-2.58-12.98.32-18.86-2.58-6.69-3.29,1.49-9.43-5.51-14.94-6.47-5.09-19.91-4.93-20.53-8.13-.41-2.11,5.29-2.86,4.61-4.69-1.11-2.98-16.67-2.18-21.02-6.42-4.56-4.44,8.18-9.49,3.92-13.65-3.75-3.66-18.89-4.89-28.78-2.16-8.8,2.43-8.78,6.7-15.02,6.81-9.17.17-16.17-8.93-20.53-8.13-5,.92,2.86,13.15-4.41,15.36-6.02,1.83-16.7-4.94-22-3.01-5.4,1.96,3.04,9.93-3.92,13.65-4.59,2.45-11.51.73-14.04,3.4-2.2,2.32,2.4,4.26,1.18,7.26-1.91,4.68-14.48,3.3-18.66,8.09-3.79,4.35,1.33,11.5,8.65,15.37,6.7,3.55,11.89,2.58,14.74,5.56,3.39,3.55-3.03,5.94-3.92,13.65-.32,2.74-1.08,9.35,6,13.23,4.85,2.67,8.2,1.2,15.23,3.85,7.81,2.95,6.98,6,15.92,12.82,6.23,4.75,12.95,9.88,20.04,9.83,9.09-.06,11.07-8.57,18.66-8.09Z"/><path class="cls-33" d="m2398.3,1035.04c-1.96,5.49-15.57,4.57-19.28,11.26-2.93,5.28,4.37,7.98,5.65,20.32.23,2.25-.03,5.95-.54,13.35-.74,10.66-1.65,13.62,1.1,16.46,3.24,3.34,6.92,1.75,10.37,5.35,4.22,4.39.08,8.16,3.64,11.72,4.6,4.59,17.2,4,25.84,1.2,7.15-2.32,8.2-5.05,12.55-4.89,7.47.28,7.39,8.44,14.92,9.2,7.12.72,10.79-6.2,19.65-5.77,6.43.31,8.26,4.14,11.65,2.97,5-1.71,1.59-10.23,7.64-14.23,6.88-4.55,16.3,3.15,27.11-1.17,10-4,11.93-14.56,17.64-14.38,3.76.12,4.14,4.75,7.46,4.6,5.42-.24,6.57-12.6,14.73-15.12,8.54-2.64,15.29,8.41,23.29,5.95,7.04-2.17,11.69-13.77,8.54-22.09-2.8-7.41-10.3-8.29-9.47-13.21,1.22-7.22,18.32-10.79,17.64-14.38-.78-4.11-23.53-.53-26.2-6.69-2.21-5.1,11.42-12.04,8.91-16.61-2.55-4.64-17.92.29-23.29-5.95-3.54-4.11.63-9.17-3.64-11.72-3.71-2.21-7.86.99-12.92-.6-7.9-2.48-3.39-12.04-11.11-16.32-7-3.89-20.38-1.38-28.38,3.54-7.33,4.5-6.5,8.77-12.19,10.37-6.79,1.91-9.92-3.62-23.29-5.95-4.75-.82-16.21-2.81-24.2,1.91-5.48,3.24-3.46,6.17-9.28,11.12-6.46,5.5-11.68,4.21-25.11,9.77-9.37,3.88-19.46,8.07-20.56,13.63-1.4,7.13,13.19,10.48,11.11,16.32Z"/><path class="cls-4" d="m2690.31,1290.39c-18.68-14.2-15-40.21-7.64-92.22,2.58-18.2,8.51-45.8,20.37-101.01,1.6-7.43,2.31-10.67,3.55-16.81,8.73-43.12,9.61-62.26,11.72-62.24,3.75.02-9.2,60.09,17.83,133.51,16.68,45.33,34.38,82.56,34.38,82.56,19.62,41.29,30.08,55.43,19.1,65-16.43,14.31-72.8,11.37-99.32-8.78Z"/><polygon class="cls-4" points="2703.6 1211.52 2562.98 1107.69 2713.23 1251.74 2703.6 1211.52"/><polygon class="cls-4" points="2706.68 1149.28 2560.29 1004.81 2713.23 1132.98 2706.68 1149.28"/><polygon class="cls-4" points="2720.87 1158.64 2794.08 1068.84 2720.87 1179.72 2720.87 1158.64"/><polygon class="cls-4" points="2742.6 1237.34 2838.49 1114.84 2742.6 1273.17 2742.6 1237.34"/><path class="cls-4" d="m2686.91,1530.06c33.51,6.86,93.32,3.23,118.55-7.46,24.49-10.38,13.08-26.01,6.12-37.53-38.3-63.42-26.64-143.04-22.89-168.59,1.98-13.53,6.51-33.53-21.36-53.07-18.97-13.31-57.08-29.3-77.73-25.34-32.63,6.25,18.9,54.48,14.55,130.91-5.27,92.63-88.06,146.58-17.24,161.08Z"/><path class="cls-25" d="m-68.57,1219.86c-10.27-1.46-16.86,29.47-54.48,48.06-48.55,23.99-138.54,22.36-168.89-1.66-21.41-16.94.46-34.28-24.52-51.38-27.63-18.92-70.23-8.54-81.72-23.2-15.24-19.46,49.34-50.99,32.69-66.29-9.45-8.69-35.91-3.71-40.86-11.6-6.75-10.76,40-23.98,35.41-38.12-4.59-14.16-54.56-10.51-70.82-29.83-15.24-18.11,10.26-43.19,13.62-46.4,32.48-31.08,86.62-26.35,100.79-53.03,8.16-15.36-6.46-23.21,5.45-31.49,21.95-15.28,82.22,4.05,98.06-9.94,8.58-7.58-7.05-15.08,0-24.86,6-8.32,24.16-12.38,144.37-14.92,49.78-1.05,64.66-.73,84.44,3.31,37.19,7.61,68.68,23.68,65.38,28.17-2.53,3.45-23.99-2.06-27.24,1.66-5.68,6.49,44.3,41.17,111.68,49.72,24.68,3.13,37.2.92,49.03,8.29,17.9,11.15,5.3,26.22,27.24,43.09,11.76,9.04,18.43,7.07,24.52,14.92,10.61,13.68-.62,31.37-13.62,41.43-5.2,4.02-17.66,13.67-37.52,16.22-6.46.83-9.8.41-11.51,2.01-6.87,6.42,37.24,22.23,32.69,38.12-3.61,12.6-34.54,13.81-35.41,24.86-.91,11.45,32,13.99,35.41,28.17,2.84,11.81-16.71,23.58-43.58,39.78-22.87,13.78-29.53,13.52-35.41,21.54-12.71,17.36,10.65,29.24,2.72,41.43-17.25,26.53-167.73,31.58-204.3-4.97-17.93-17.93-4.38-41.78-13.62-43.09Z"/><path class="cls-26" d="m102.72,1125.4c-8.15.64-11.61-8.49-22-8.57-8.2-.06-9.32,5.6-25.67,10.71-2.98.93-8.09,2.05-18.33,4.28-14.75,3.22-19.09,3.66-22,6.42-3.42,3.25.03,5.08-3.67,8.57-4.51,4.25-11.07,2.88-14.67,6.42-4.65,4.57.53,12.52,7.33,17.13,5.63,3.82,9.71,3.55,11,6.42,2.21,4.93-8.91,7.71-7.33,12.85,1.49,4.86,12.17,4.83,14.67,10.71,1.81,4.27-2.76,6.78,0,8.57,4.07,2.64,14.46-2.52,22,0,8.57,2.87,1.37,11.64,11,17.13,8.9,5.08,23.94,2.66,25.67,6.42,1.14,2.48-5.02,4.32-3.67,6.42,2.2,3.42,19.41-.12,25.67,4.28,6.55,4.61-6.12,12.81,0,17.13,5.39,3.8,22.78,2.79,33-2.14,9.1-4.38,7.7-9.54,14.67-10.71,10.23-1.71,21.03,8.11,25.67,6.42,5.32-1.93-7.45-15.41,0-19.27,6.16-3.2,20.34,3.21,25.67,0,5.43-3.26-6.61-11.49,0-17.13,4.36-3.72,12.68-2.77,14.67-6.42,1.72-3.17-4.07-4.74-3.67-8.57.63-5.97,15.19-6.37,18.33-12.85,2.86-5.88-5.2-13.66-14.67-17.13-8.66-3.18-14.18-1.16-18.33-4.28-4.96-3.73,1.48-7.67,0-17.13-.53-3.36-1.8-11.46-11-14.99-6.31-2.42-9.59-.1-18.33-2.14-9.71-2.27-9.77-6.09-22-12.85-8.53-4.71-17.72-9.79-25.67-8.57-10.18,1.57-9.66,12.17-18.33,12.85Z"/><path class="cls-32" d="m-41.96,869.8c-8.11.55-11.55-7.34-21.89-7.41-8.16-.05-9.28,4.84-25.53,9.26-2.96.8-8.05,1.77-18.24,3.71-14.67,2.79-18.99,3.16-21.89,5.56-3.4,2.81.03,4.4-3.65,7.41-4.48,3.68-11.01,2.49-14.59,5.56-4.62,3.96.53,10.83,7.3,14.82,5.61,3.31,9.66,3.07,10.94,5.56,2.2,4.27-8.86,6.67-7.3,11.12,1.48,4.2,12.11,4.18,14.59,9.26,1.8,3.69-2.74,5.86,0,7.41,4.04,2.28,14.39-2.18,21.89,0,8.52,2.48,1.36,10.07,10.94,14.82,8.86,4.4,23.81,2.3,25.53,5.56,1.13,2.14-4.99,3.74-3.65,5.56,2.19,2.96,19.31-.11,25.53,3.71,6.51,3.99-6.09,11.08,0,14.82,5.36,3.29,22.66,2.41,32.83-1.85,9.05-3.79,7.66-8.25,14.59-9.26,10.18-1.48,20.92,7.01,25.53,5.56,5.29-1.67-7.41-13.33,0-16.67,6.13-2.77,20.23,2.77,25.53,0,5.4-2.82-6.58-9.94,0-14.82,4.34-3.22,12.61-2.4,14.59-5.56,1.71-2.74-4.05-4.1-3.65-7.41.63-5.16,15.11-5.51,18.24-11.12,2.84-5.09-5.17-11.82-14.59-14.82-8.62-2.75-14.11-1-18.24-3.71-4.93-3.23,1.48-6.64,0-14.82-.52-2.9-1.79-9.92-10.94-12.97-6.27-2.09-9.54-.08-18.24-1.85-9.66-1.97-9.72-5.27-21.89-11.12-8.49-4.08-17.63-8.47-25.53-7.41-10.13,1.36-9.61,10.53-18.24,11.12Z"/><path class="cls-20" d="m10.09,1239.98c.41-4.22,12.58-4.31,14.25-9.52,1.31-4.12-5.74-5.71-9.81-14.87-.74-1.67-1.4-4.45-2.71-10.01-1.89-8.01-1.8-10.28-4.89-12.24-3.64-2.31-6.49-.91-10.39-3.4-4.75-3.04-2.02-6.1-6-8.55-5.14-3.17-16.06-2-22.98.58-5.73,2.14-5.99,4.25-9.86,4.37-6.63.22-8.5-5.89-15.3-6.03-6.42-.13-8,5.25-15.88,5.44-5.72.14-8.24-2.62-10.94-1.55-3.98,1.57,1.05,7.74-3.31,11.08-4.95,3.79-15.06-1.42-23.53,2.43-7.83,3.56-7,11.57-12.06,11.76-3.33.12-4.77-3.31-7.65-3.01-4.7.49-2.76,9.8-9.33,12.15-6.87,2.46-15.44-5.41-21.87-3.11-5.67,2.02-6.98,10.96-2.23,17.01,4.23,5.38,11.02,5.61,11.46,9.33.65,5.46-13.52,9.12-12.06,11.76,1.67,3.03,20.79-.96,24.61,3.5,3.16,3.68-7.15,9.66-3.86,12.93,3.35,3.32,15.67-1.24,21.87,3.11,4.09,2.87,1.63,6.89,6,8.55,3.78,1.44,6.67-1.19,11.49-.29,7.52,1.4,5.85,8.8,13.65,11.56,7.08,2.51,18.22-.14,24.08-4.28,5.36-3.79,3.61-6.93,8.23-8.46,5.51-1.82,9.57,2.14,21.87,3.11,4.37.34,14.91,1.17,20.79-2.82,4.04-2.74,1.56-4.81,5.49-8.84,4.36-4.48,9.25-3.82,19.72-8.75,7.3-3.44,15.17-7.15,14.8-11.37-.47-5.41-14.09-7.07-13.65-11.56Z"/><path class="cls-29" d="m24.74,943.46c-6.15,3.74-16.57-2.36-25.15,1.68-6.77,3.19-2.99,8.27-12.13,18.92-1.66,1.94-4.93,4.88-11.46,10.76-9.41,8.47-12.6,10.55-12.69,13.96-.1,4.02,4.25,4.15,4.11,8.47-.16,5.27-6.67,6.74-6.68,11.06,0,5.58,10.84,10.05,20.25,11.14,7.79.9,10.91-.93,14.35.91,5.91,3.17-.89,9.84,4.67,13.43,5.26,3.39,13.99-.86,20.92,2.97,5.03,2.78,3.37,6.64,7.12,7.02,5.52.55,9.75-7.79,18.03-8.7,9.41-1.04,10.79,8.99,23.25,9.69,11.52.64,21.83-7.29,26.37-4.89,2.99,1.58-.52,5.53,2.33,6.71,4.65,1.93,15.8-7.78,24.59-6.64,9.19,1.19,5.63,12.92,14.24,14.04,7.58.98,20.98-6.73,25.26-14.81,3.81-7.19-1.62-10.86,3.12-14.57,6.96-5.45,23.97-1.67,26.37-4.89,2.75-3.69-18.91-9.68-16.02-15.79,2.39-5.06,19.33-5.42,21.03-10.15,1.73-4.82-14.97-6.8-14.24-14.04.48-4.77,8.08-7.29,6.68-11.06-1.22-3.28-7.28-2.27-10.12-5.57-4.44-5.14,7.15-11.23,4.34-17.78-2.55-5.95-15.61-9.14-26.26-8.24-9.74.82-12.58,4.66-18.58,3.74-7.16-1.1-5.16-6.87-14.24-14.04-3.22-2.54-11-8.68-21.47-7.93-7.18.51-7.93,3.71-16.8,5.5-9.85,1.98-13.07-1.13-28.7-1.83-10.91-.49-22.66-1.01-28.15,3.13-7.04,5.32,2.2,13.79-4.34,17.78Z"/><polygon class="cls-4" points="-71.4 1245.34 24.49 1122.84 -71.4 1281.17 -71.4 1245.34"/><path class="cls-4" d="m-127.09,1538.06c33.51,6.86,93.32,3.23,118.55-7.46,24.49-10.38,13.08-26.01,6.12-37.53-38.3-63.42-26.64-143.04-22.89-168.59,1.98-13.53,6.51-33.53-21.36-53.07-18.97-13.31-57.08-29.3-77.73-25.34-32.63,6.25,18.9,54.48,14.55,130.91-5.27,92.63-88.06,146.58-17.24,161.08Z"/><path class="cls-25" d="m640.53,910.5c-2.45-.5-4.02,10.11-12.99,16.49-11.57,8.23-33.02,7.67-40.26-.57-5.1-5.81.11-11.76-5.84-17.62-6.59-6.49-16.74-2.93-19.48-7.96-3.63-6.67,11.76-17.49,7.79-22.74-2.25-2.98-8.56-1.27-9.74-3.98-1.61-3.69,9.53-8.22,8.44-13.08-1.1-4.86-13.01-3.6-16.88-10.23-3.63-6.21,2.45-14.82,3.25-15.92,7.74-10.66,20.65-9.04,24.02-18.19,1.95-5.27-1.54-7.96,1.3-10.8,5.23-5.24,19.6,1.39,23.37-3.41,2.05-2.6-1.68-5.17,0-8.53,1.43-2.85,5.76-4.25,34.41-5.12,11.87-.36,15.41-.25,20.13,1.14,8.86,2.61,16.37,8.12,15.58,9.66-.6,1.18-5.72-.71-6.49.57-1.35,2.23,10.56,14.12,26.62,17.05,5.88,1.07,8.87.31,11.69,2.84,4.27,3.82,1.26,8.99,6.49,14.78,2.8,3.1,4.39,2.42,5.84,5.12,2.53,4.69-.15,10.76-3.25,14.21-1.24,1.38-4.21,4.69-8.94,5.56-1.54.28-2.34.14-2.74.69-1.64,2.2,8.88,7.63,7.79,13.08-.86,4.32-8.23,4.74-8.44,8.53-.22,3.93,7.63,4.8,8.44,9.66.68,4.05-3.98,8.09-10.39,13.64-5.45,4.73-7.04,4.64-8.44,7.39-3.03,5.96,2.54,10.03.65,14.21-4.11,9.1-39.98,10.83-48.7-1.71-4.27-6.15-1.04-14.33-3.25-14.78Z"/><path class="cls-26" d="m681.36,878.1c-1.94.22-2.77-2.91-5.24-2.94-1.95-.02-2.22,1.92-6.12,3.67-.71.32-1.93.7-4.37,1.47-3.52,1.1-4.55,1.25-5.24,2.2-.82,1.12,0,1.74-.87,2.94-1.07,1.46-2.64.99-3.5,2.2-1.11,1.57.13,4.29,1.75,5.88,1.34,1.31,2.31,1.22,2.62,2.2.53,1.69-2.12,2.64-1.75,4.41.36,1.67,2.9,1.66,3.5,3.67.43,1.46-.66,2.33,0,2.94.97.9,3.45-.87,5.24,0,2.04.98.33,3.99,2.62,5.88,2.12,1.74,5.71.91,6.12,2.2.27.85-1.2,1.48-.87,2.2.53,1.17,4.63-.04,6.12,1.47,1.56,1.58-1.46,4.4,0,5.88,1.28,1.3,5.43.96,7.87-.73,2.17-1.5,1.84-3.27,3.5-3.67,2.44-.59,5.01,2.78,6.12,2.2,1.27-.66-1.78-5.29,0-6.61,1.47-1.1,4.85,1.1,6.12,0,1.29-1.12-1.58-3.94,0-5.88,1.04-1.28,3.02-.95,3.5-2.2.41-1.09-.97-1.63-.87-2.94.15-2.05,3.62-2.19,4.37-4.41.68-2.02-1.24-4.69-3.5-5.88-2.07-1.09-3.38-.4-4.37-1.47-1.18-1.28.35-2.63,0-5.88-.13-1.15-.43-3.93-2.62-5.14-1.5-.83-2.28-.03-4.37-.73-2.32-.78-2.33-2.09-5.24-4.41-2.03-1.62-4.22-3.36-6.12-2.94-2.43.54-2.3,4.18-4.37,4.41Z"/><path class="cls-32" d="m646.87,790.42c-1.93.19-2.75-2.52-5.22-2.54-1.94-.02-2.21,1.66-6.09,3.18-.71.28-1.92.61-4.35,1.27-3.5.96-4.53,1.09-5.22,1.91-.81.97,0,1.51-.87,2.54-1.07,1.26-2.62.86-3.48,1.91-1.1,1.36.13,3.71,1.74,5.08,1.34,1.13,2.3,1.05,2.61,1.91.52,1.46-2.11,2.29-1.74,3.81.35,1.44,2.89,1.43,3.48,3.18.43,1.27-.65,2.01,0,2.54.96.78,3.43-.75,5.22,0,2.03.85.33,3.45,2.61,5.08,2.11,1.51,5.68.79,6.09,1.91.27.74-1.19,1.28-.87,1.91.52,1.02,4.6-.04,6.09,1.27,1.55,1.37-1.45,3.8,0,5.08,1.28,1.13,5.4.83,7.83-.64,2.16-1.3,1.83-2.83,3.48-3.18,2.43-.51,4.99,2.41,6.09,1.91,1.26-.57-1.77-4.57,0-5.72,1.46-.95,4.82.95,6.09,0,1.29-.97-1.57-3.41,0-5.08,1.03-1.1,3.01-.82,3.48-1.91.41-.94-.97-1.41-.87-2.54.15-1.77,3.6-1.89,4.35-3.81.68-1.74-1.23-4.05-3.48-5.08-2.05-.94-3.36-.34-4.35-1.27-1.18-1.11.35-2.28,0-5.08-.13-1-.43-3.4-2.61-4.45-1.5-.72-2.27-.03-4.35-.64-2.3-.67-2.32-1.81-5.22-3.81-2.02-1.4-4.2-2.91-6.09-2.54-2.42.47-2.29,3.61-4.35,3.81Z"/><path class="cls-20" d="m659.28,917.4c.1-1.45,3-1.48,3.4-3.27.31-1.41-1.37-1.96-2.34-5.1-.18-.57-.33-1.53-.65-3.43-.45-2.75-.43-3.53-1.17-4.2-.87-.79-1.55-.31-2.48-1.17-1.13-1.04-.48-2.09-1.43-2.93-1.22-1.09-3.83-.69-5.48.2-1.37.74-1.43,1.46-2.35,1.5-1.58.08-2.03-2.02-3.65-2.07-1.53-.04-1.91,1.8-3.78,1.87-1.36.05-1.96-.9-2.61-.53-.95.54.25,2.66-.79,3.8-1.18,1.3-3.59-.49-5.61.83-1.87,1.22-1.67,3.97-2.88,4.03-.79.04-1.14-1.14-1.82-1.03-1.12.17-.66,3.36-2.22,4.17-1.64.84-3.68-1.86-5.21-1.07-1.35.69-1.66,3.76-.53,5.83,1.01,1.84,2.63,1.92,2.73,3.2.15,1.87-3.22,3.13-2.88,4.03.4,1.04,4.96-.33,5.87,1.2.75,1.26-1.7,3.31-.92,4.43.8,1.14,3.73-.43,5.21,1.07.98.98.39,2.36,1.43,2.93.9.49,1.59-.41,2.74-.1,1.79.48,1.39,3.02,3.25,3.97,1.69.86,4.34-.05,5.74-1.47,1.28-1.3.86-2.38,1.96-2.9,1.31-.62,2.28.73,5.21,1.07,1.04.12,3.55.4,4.96-.97.96-.94.37-1.65,1.31-3.03,1.04-1.54,2.21-1.31,4.7-3,1.74-1.18,3.62-2.45,3.53-3.9-.11-1.86-3.36-2.43-3.25-3.97Z"/><path class="cls-28" d="m607.95,842.28c-1.62,1.08-3.81-1.32-6.02-.21-1.74.88-1.08,2.72-3.72,6.06-.48.61-1.39,1.51-3.2,3.3-2.61,2.59-3.46,3.2-3.63,4.36-.2,1.36.82,1.54.59,3.01-.28,1.79-1.88,2.09-2.08,3.56-.25,1.9,2.11,3.75,4.28,4.41,1.8.55,2.62.02,3.35.76,1.25,1.26-.66,3.32.5,4.71,1.09,1.32,3.34.14,4.81,1.66,1.06,1.1.5,2.36,1.36,2.61,1.28.36,2.66-2.35,4.65-2.4,2.27-.06,2.14,3.39,5.06,4.01,2.69.58,5.49-1.8,6.45-.84.64.63-.37,1.86.25,2.36,1.01.8,4.09-2.15,6.11-1.5,2.12.69.75,4.57,2.73,5.21,1.75.57,5.26-1.64,6.64-4.25,1.23-2.33.11-3.74,1.4-4.86,1.89-1.64,5.74.17,6.45-.84.82-1.17-4.03-3.88-3.07-5.87.79-1.65,4.81-1.24,5.43-2.8.63-1.59-3.23-2.78-2.73-5.21.33-1.61,2.24-2.23,2.08-3.56-.14-1.15-1.62-1-2.14-2.21-.82-1.89,2.2-3.6,1.83-5.91-.33-2.1-3.28-3.59-5.83-3.61-2.34-.02-3.18,1.19-4.56.7-1.64-.59-.91-2.5-2.73-5.21-.65-.96-2.21-3.29-4.72-3.36-1.72-.05-2.04,1.02-4.22,1.35-2.42.37-3.04-.79-6.7-1.51-2.56-.5-5.31-1.05-6.79.19-1.9,1.59-.1,4.76-1.83,5.91Z"/><path class="cls-20" d="m596.82,802.38c-.78.72-2.37-.79-3.49-.05-.88.59-.24,1.76-1.3,3.93-.19.4-.59.98-1.38,2.16-1.14,1.69-1.54,2.09-1.48,2.84.07.88.68.98.75,1.92.09,1.15-.79,1.36-.7,2.3.12,1.22,1.73,2.37,3.07,2.76,1.11.33,1.51-.02,2.03.43.89.79.08,2.13.94,3.01.81.83,1.94.04,2.99.99.76.69.61,1.5,1.14,1.65.79.21,1.2-1.54,2.34-1.6,1.3-.07,1.7,2.14,3.46,2.49,1.63.33,2.9-1.23,3.59-.63.45.39.04,1.2.47,1.5.69.5,2.05-1.44,3.3-1.05,1.31.41,1.06,2.91,2.29,3.3,1.08.34,2.8-1.12,3.23-2.82.38-1.51-.46-2.4.13-3.13.86-1.08,3.32.03,3.59-.63.31-.76-2.85-2.42-2.58-3.71.23-1.06,2.59-.87,2.73-1.87.14-1.02-2.24-1.73-2.29-3.3-.03-1.03.98-1.46.7-2.3-.24-.73-1.07-.62-1.54-1.38-.73-1.19.76-2.33.23-3.81-.48-1.34-2.38-2.25-3.85-2.23-1.35.02-1.66.81-2.52.51-1.03-.36-.87-1.58-2.29-3.3-.5-.61-1.72-2.07-3.17-2.08-.99,0-1.03.68-2.24.92-1.34.27-1.85-.46-4.06-.87-1.54-.29-3.2-.59-3.88.22-.87,1.04.6,3.05-.23,3.81Z"/><path class="cls-29" d="m588.86,927.16c1.7.15,1.91,2.79,4.03,3.23,1.67.35,2.21-1.16,5.83-1.9.66-.13,1.77-.23,3.98-.43,3.19-.29,4.1-.23,4.85-.87.88-.75.27-1.39,1.22-2.19,1.15-.98,2.42-.34,3.35-1.17,1.2-1.06.57-3.44-.56-4.98-.94-1.27-1.79-1.36-1.9-2.2-.18-1.44,2.24-1.75,2.2-3.22-.04-1.39-2.22-1.81-2.41-3.52-.14-1.24.93-1.74.47-2.34-.69-.88-3.09.11-4.5-.88-1.59-1.13.35-3.24-1.31-5.13-1.54-1.75-4.75-1.69-4.89-2.79-.1-.72,1.26-.98,1.1-1.61-.26-1.02-3.97-.75-5.01-2.2-1.09-1.52,1.95-3.26.93-4.68-.89-1.26-4.5-1.68-6.86-.74-2.1.83-2.09,2.3-3.58,2.34-2.18.06-3.86-3.06-4.89-2.79-1.19.31.68,4.51-1.05,5.27-1.43.63-3.98-1.69-5.24-1.03-1.29.67.72,3.41-.93,4.68-1.09.84-2.74.25-3.35,1.17-.52.8.57,1.46.28,2.49-.45,1.61-3.45,1.13-4.45,2.78-.9,1.49.32,3.94,2.06,5.27,1.6,1.22,2.83.89,3.51,1.91.81,1.22-.72,2.04-.93,4.68-.08.94-.26,3.21,1.43,4.54,1.16.91,1.95.41,3.63,1.32,1.86,1.01,1.66,2.06,3.79,4.4,1.49,1.63,3.09,3.39,4.78,3.37,2.17-.02,2.64-2.94,4.45-2.78Z"/><path class="cls-29" d="m662.77,815.69c-1.47,1.28-3.95-.81-5.99.58-1.61,1.09-.71,2.84-2.89,6.49-.4.67-1.18,1.67-2.73,3.69-2.24,2.91-3,3.62-3.02,4.79-.02,1.38,1.01,1.42.98,2.91-.04,1.81-1.59,2.31-1.59,3.8,0,1.92,2.58,3.45,4.83,3.82,1.86.31,2.6-.32,3.42.31,1.41,1.09-.21,3.38,1.11,4.61,1.25,1.16,3.33-.29,4.99,1.02,1.2.95.8,2.28,1.7,2.41,1.32.19,2.32-2.67,4.3-2.98,2.24-.36,2.57,3.08,5.54,3.32,2.75.22,5.2-2.5,6.29-1.68.71.54-.12,1.9.56,2.3,1.11.66,3.77-2.67,5.86-2.28,2.19.41,1.34,4.43,3.39,4.82,1.81.34,5-2.31,6.02-5.08.91-2.47-.39-3.73.74-5,1.66-1.87,5.71-.57,6.29-1.68.66-1.26-4.51-3.32-3.82-5.42.57-1.73,4.61-1.86,5.01-3.48.41-1.65-3.57-2.33-3.39-4.82.11-1.64,1.93-2.5,1.59-3.8-.29-1.12-1.73-.78-2.41-1.91-1.06-1.76,1.7-3.85,1.04-6.1-.61-2.04-3.72-3.13-6.26-2.83-2.32.28-3,1.6-4.43,1.28-1.71-.38-1.23-2.36-3.39-4.82-.77-.87-2.62-2.98-5.12-2.72-1.71.18-1.89,1.27-4,1.89-2.35.68-3.12-.39-6.84-.63-2.6-.17-5.4-.35-6.71,1.07-1.68,1.82.52,4.73-1.04,6.1Z"/><path class="cls-33" d="m557.78,849.84c-.47,1.88-3.71,1.57-4.6,3.86-.7,1.81,1.04,2.74,1.35,6.97.06.77,0,2.04-.13,4.58-.18,3.66-.39,4.67.26,5.65.77,1.15,1.65.6,2.47,1.83,1,1.51.02,2.8.87,4.02,1.1,1.58,4.1,1.37,6.16.41,1.71-.8,1.95-1.73,2.99-1.68,1.78.1,1.76,2.9,3.56,3.16,1.7.25,2.57-2.13,4.68-1.98,1.53.11,1.97,1.42,2.78,1.02,1.19-.59.38-3.51,1.82-4.88,1.64-1.56,3.88,1.08,6.46-.4,2.38-1.37,2.84-5,4.21-4.93.9.04.99,1.63,1.78,1.58,1.29-.08,1.57-4.32,3.51-5.19,2.03-.9,3.65,2.88,5.55,2.04,1.68-.74,2.79-4.72,2.04-7.58-.67-2.54-2.45-2.84-2.26-4.53.29-2.48,4.37-3.7,4.21-4.93-.19-1.41-5.61-.18-6.25-2.29-.53-1.75,2.72-4.13,2.12-5.7-.61-1.59-4.27.1-5.55-2.04-.84-1.41.15-3.14-.87-4.02-.88-.76-1.87.34-3.08-.21-1.88-.85-.81-4.13-2.65-5.6-1.67-1.33-4.86-.47-6.77,1.21-1.75,1.54-1.55,3.01-2.9,3.56-1.62.66-2.36-1.24-5.55-2.04-1.13-.28-3.86-.97-5.77.66-1.31,1.11-.82,2.12-2.21,3.81-1.54,1.89-2.78,1.44-5.98,3.35-2.23,1.33-4.64,2.77-4.9,4.68-.33,2.45,3.15,3.59,2.65,5.6Z"/><path class="cls-4" d="m627.39,937.43c-4.45-4.87-3.58-13.79-1.82-31.64.61-6.24,2.03-15.71,4.86-34.65.38-2.55.55-3.66.85-5.76,2.08-14.79,2.29-21.36,2.79-21.35.89,0-2.19,20.61,4.25,45.8,3.98,15.55,8.19,28.32,8.19,28.32,4.68,14.16,7.17,19.01,4.55,22.3-3.92,4.91-17.35,3.9-23.67-3.01Z"/><polygon class="cls-4" points="630.56 910.38 597.04 874.77 632.85 924.18 630.56 910.38"/><polygon class="cls-4" points="631.29 889.03 596.4 839.47 632.85 883.44 631.29 889.03"/><polygon class="cls-4" points="634.67 892.24 652.12 861.44 634.67 899.47 634.67 892.24"/><polygon class="cls-4" points="639.85 919.24 662.71 877.22 639.85 931.53 639.85 919.24"/><path class="cls-4" d="m626.58,1019.65c7.99,2.35,22.24,1.11,28.26-2.56,5.84-3.56,3.12-8.92,1.46-12.87-9.13-21.76-6.35-49.07-5.46-57.83.47-4.64,1.55-11.5-5.09-18.21-4.52-4.56-13.6-10.05-18.53-8.69-7.78,2.14,4.51,18.69,3.47,44.91-1.26,31.77-20.99,50.28-4.11,55.25Z"/><path class="cls-25" d="m719.24,971.34c-1.77-.3-2.9,6.02-9.38,9.81-8.36,4.9-23.86,4.57-29.09-.34-3.69-3.46.08-7-4.22-10.49-4.76-3.86-12.1-1.74-14.07-4.74-2.63-3.97,8.5-10.41,5.63-13.54-1.63-1.77-6.18-.76-7.04-2.37-1.16-2.2,6.89-4.9,6.1-7.78-.79-2.89-9.4-2.15-12.2-6.09-2.62-3.7,1.77-8.82,2.35-9.48,5.59-6.35,14.92-5.38,17.36-10.83,1.41-3.14-1.11-4.74.94-6.43,3.78-3.12,14.16.83,16.89-2.03,1.48-1.55-1.21-3.08,0-5.08,1.03-1.7,4.16-2.53,24.86-3.05,8.57-.21,11.14-.15,14.54.68,6.4,1.55,11.83,4.84,11.26,5.75-.44.7-4.13-.42-4.69.34-.98,1.33,7.63,8.41,19.23,10.15,4.25.64,6.41.19,8.44,1.69,3.08,2.28.91,5.35,4.69,8.8,2.03,1.85,3.17,1.44,4.22,3.05,1.83,2.79-.11,6.41-2.35,8.46-.9.82-3.04,2.79-6.46,3.31-1.11.17-1.69.08-1.98.41-1.18,1.31,6.41,4.54,5.63,7.78-.62,2.57-5.95,2.82-6.1,5.08-.16,2.34,5.51,2.86,6.1,5.75.49,2.41-2.88,4.82-7.51,8.12-3.94,2.81-5.09,2.76-6.1,4.4-2.19,3.55,1.83,5.97.47,8.46-2.97,5.42-28.89,6.45-35.19-1.02-3.09-3.66-.76-8.53-2.35-8.8Z"/><path class="cls-26" d="m748.75,952.05c-1.4.13-2-1.73-3.79-1.75-1.41-.01-1.61,1.14-4.42,2.19-.51.19-1.39.42-3.16.87-2.54.66-3.29.75-3.79,1.31-.59.66,0,1.04-.63,1.75-.78.87-1.91.59-2.53,1.31-.8.93.09,2.56,1.26,3.5.97.78,1.67.73,1.89,1.31.38,1.01-1.53,1.57-1.26,2.62.26.99,2.1.99,2.53,2.19.31.87-.47,1.38,0,1.75.7.54,2.49-.52,3.79,0,1.48.59.24,2.38,1.89,3.5,1.53,1.04,4.12.54,4.42,1.31.2.51-.86.88-.63,1.31.38.7,3.34-.03,4.42.87,1.13.94-1.05,2.62,0,3.5.93.78,3.92.57,5.68-.44,1.57-.9,1.33-1.95,2.53-2.19,1.76-.35,3.62,1.66,4.42,1.31.92-.39-1.28-3.15,0-3.94,1.06-.65,3.5.65,4.42,0,.93-.67-1.14-2.35,0-3.5.75-.76,2.18-.57,2.53-1.31.3-.65-.7-.97-.63-1.75.11-1.22,2.62-1.3,3.16-2.62.49-1.2-.9-2.79-2.53-3.5-1.49-.65-2.44-.24-3.16-.87-.85-.76.26-1.57,0-3.5-.09-.69-.31-2.34-1.89-3.06-1.09-.49-1.65-.02-3.16-.44-1.67-.46-1.68-1.24-3.79-2.62-1.47-.96-3.05-2-4.42-1.75-1.75.32-1.66,2.49-3.16,2.62Z"/><path class="cls-32" d="m723.83,899.85c-1.4.11-1.99-1.5-3.77-1.51-1.4-.01-1.6.99-4.4,1.89-.51.16-1.39.36-3.14.76-2.53.57-3.27.65-3.77,1.13-.59.57,0,.9-.63,1.51-.77.75-1.9.51-2.51,1.13-.8.81.09,2.21,1.26,3.03.97.68,1.66.63,1.88,1.13.38.87-1.53,1.36-1.26,2.27.26.86,2.09.85,2.51,1.89.31.75-.47,1.2,0,1.51.7.47,2.48-.45,3.77,0,1.47.51.23,2.06,1.88,3.03,1.53.9,4.1.47,4.4,1.13.19.44-.86.76-.63,1.13.38.6,3.33-.02,4.4.76,1.12.81-1.05,2.26,0,3.03.92.67,3.9.49,5.65-.38,1.56-.77,1.32-1.69,2.51-1.89,1.75-.3,3.6,1.43,4.4,1.13.91-.34-1.28-2.72,0-3.4,1.06-.56,3.48.57,4.4,0,.93-.58-1.13-2.03,0-3.03.75-.66,2.17-.49,2.51-1.13.3-.56-.7-.84-.63-1.51.11-1.05,2.6-1.13,3.14-2.27.49-1.04-.89-2.41-2.51-3.03-1.48-.56-2.43-.2-3.14-.76-.85-.66.25-1.36,0-3.03-.09-.59-.31-2.02-1.88-2.65-1.08-.43-1.64-.02-3.14-.38-1.66-.4-1.67-1.08-3.77-2.27-1.46-.83-3.04-1.73-4.4-1.51-1.74.28-1.66,2.15-3.14,2.27Z"/><path class="cls-20" d="m732.79,975.44c.07-.86,2.17-.88,2.45-1.94.23-.84-.99-1.17-1.69-3.04-.13-.34-.24-.91-.47-2.04-.33-1.64-.31-2.1-.84-2.5-.63-.47-1.12-.19-1.79-.69-.82-.62-.35-1.24-1.03-1.75-.88-.65-2.77-.41-3.96.12-.99.44-1.03.87-1.7.89-1.14.04-1.46-1.2-2.64-1.23-1.11-.03-1.38,1.07-2.73,1.11-.98.03-1.42-.53-1.88-.32-.69.32.18,1.58-.57,2.26-.85.77-2.59-.29-4.05.5-1.35.73-1.21,2.36-2.08,2.4-.57.03-.82-.68-1.32-.62-.81.1-.48,2-1.61,2.48-1.18.5-2.66-1.1-3.77-.63-.98.41-1.2,2.24-.38,3.47.73,1.1,1.9,1.15,1.97,1.91.11,1.12-2.33,1.86-2.08,2.4.29.62,3.58-.2,4.24.71.54.75-1.23,1.97-.67,2.64.58.68,2.7-.25,3.77.63.7.59.28,1.41,1.03,1.75.65.29,1.15-.24,1.98-.06,1.3.29,1.01,1.8,2.35,2.36,1.22.51,3.14-.03,4.15-.87.92-.77.62-1.42,1.42-1.73.95-.37,1.65.44,3.77.63.75.07,2.57.24,3.58-.58.7-.56.27-.98.95-1.81.75-.91,1.59-.78,3.4-1.79,1.26-.7,2.61-1.46,2.55-2.32-.08-1.11-2.43-1.44-2.35-2.36Z"/><path class="cls-28" d="m695.71,930.73c-1.17.64-2.75-.78-4.35-.12-1.26.52-.78,1.62-2.69,3.61-.35.36-1,.9-2.31,1.97-1.88,1.54-2.5,1.9-2.62,2.59-.15.81.59.92.43,1.79-.2,1.06-1.36,1.24-1.5,2.12-.18,1.13,1.52,2.23,3.09,2.63,1.3.33,1.89.01,2.42.45.91.75-.47,1.98.36,2.8.79.78,2.42.08,3.47.99.77.66.36,1.41.99,1.55.92.21,1.92-1.4,3.36-1.43,1.64-.04,1.55,2.02,3.65,2.39,1.95.34,3.97-1.07,4.66-.5.46.38-.27,1.11.18,1.4.73.48,2.95-1.28,4.42-.89,1.53.41.54,2.72,1.97,3.1,1.26.34,3.8-.97,4.8-2.53.89-1.39.08-2.23,1.01-2.89,1.37-.98,4.15.1,4.66-.5.59-.7-2.91-2.31-2.22-3.49.57-.98,3.48-.74,3.92-1.67.45-.94-2.33-1.65-1.97-3.1.24-.96,1.62-1.33,1.5-2.12-.1-.69-1.17-.59-1.55-1.31-.59-1.12,1.59-2.14,1.32-3.52-.24-1.25-2.37-2.14-4.21-2.15-1.69-.01-2.3.71-3.29.41-1.19-.35-.66-1.49-1.97-3.1-.47-.57-1.59-1.96-3.41-2-1.24-.03-1.48.61-3.05.8-1.75.22-2.2-.47-4.84-.9-1.85-.3-3.84-.62-4.91.11-1.38.95-.08,2.83-1.32,3.52Z"/><path class="cls-20" d="m687.66,906.98c-.57.43-1.71-.47-2.52-.03-.64.35-.18,1.05-.94,2.34-.14.24-.42.59-1,1.29-.82,1.01-1.12,1.25-1.07,1.69.05.52.49.58.55,1.14.06.68-.57.81-.51,1.37.08.73,1.25,1.41,2.22,1.64.8.19,1.09-.01,1.47.26.65.47.06,1.27.68,1.79.58.49,1.4.03,2.16.59.55.41.44.9.83.98.57.13.87-.92,1.69-.95.94-.04,1.23,1.27,2.5,1.49,1.18.2,2.1-.73,2.59-.38.33.23.03.71.34.89.5.3,1.48-.86,2.39-.62.95.24.77,1.73,1.65,1.96.78.2,2.02-.67,2.33-1.68.28-.9-.33-1.43.09-1.86.62-.64,2.4.02,2.59-.38.22-.45-2.06-1.44-1.86-2.21.17-.63,1.87-.52,1.97-1.11.1-.61-1.62-1.03-1.65-1.96-.02-.61.71-.87.51-1.37-.17-.44-.77-.37-1.11-.82-.53-.71.55-1.39.17-2.27-.35-.8-1.72-1.34-2.78-1.33-.97.01-1.2.48-1.82.3-.74-.21-.63-.94-1.65-1.96-.36-.36-1.25-1.23-2.29-1.24-.72,0-.75.4-1.62.55-.97.16-1.34-.27-2.93-.52-1.11-.17-2.31-.35-2.8.13-.63.62.43,1.81-.17,2.27Z"/><path class="cls-29" d="m681.91,981.26c1.23.09,1.38,1.66,2.91,1.92,1.21.21,1.6-.69,4.21-1.13.48-.08,1.28-.14,2.88-.26,2.3-.17,2.96-.14,3.5-.52.63-.45.2-.83.88-1.31.83-.58,1.75-.2,2.42-.69.87-.63.41-2.05-.41-2.96-.68-.76-1.29-.81-1.37-1.31-.13-.86,1.62-1.04,1.59-1.92-.03-.83-1.61-1.08-1.74-2.09-.1-.74.67-1.04.34-1.39-.5-.53-2.23.06-3.25-.53-1.15-.67.26-1.93-.95-3.05-1.11-1.04-3.43-1.01-3.54-1.66-.07-.43.91-.58.79-.96-.19-.61-2.87-.44-3.62-1.31-.78-.91,1.41-1.94.68-2.79-.65-.75-3.25-1-4.96-.44-1.52.5-1.51,1.37-2.59,1.39-1.58.03-2.79-1.82-3.54-1.66-.86.19.49,2.69-.76,3.14-1.04.37-2.88-1.01-3.79-.61-.93.4.52,2.03-.68,2.79-.79.5-1.98.15-2.42.69-.38.47.41.87.2,1.48-.33.96-2.49.67-3.21,1.65-.65.89.23,2.35,1.49,3.14,1.15.72,2.05.53,2.54,1.14.58.73-.52,1.21-.68,2.79-.05.56-.19,1.91,1.03,2.7.84.54,1.41.24,2.62.79,1.34.6,1.2,1.23,2.74,2.62,1.07.97,2.23,2.02,3.45,2.01,1.57-.01,1.91-1.75,3.21-1.65Z"/><path class="cls-29" d="m735.32,914.9c-1.06.76-2.85-.48-4.33.34-1.17.65-.51,1.69-2.09,3.86-.29.4-.85,1-1.97,2.2-1.62,1.73-2.17,2.15-2.19,2.85-.02.82.73.85.71,1.73-.03,1.08-1.15,1.38-1.15,2.26,0,1.14,1.87,2.05,3.49,2.27,1.34.18,1.88-.19,2.47.19,1.02.65-.15,2.01.8,2.74.91.69,2.41-.17,3.6.61.87.57.58,1.36,1.23,1.43.95.11,1.68-1.59,3.1-1.78,1.62-.21,1.86,1.84,4,1.98,1.98.13,3.76-1.49,4.54-1,.52.32-.09,1.13.4,1.37.8.39,2.72-1.59,4.24-1.36,1.58.24.97,2.64,2.45,2.87,1.3.2,3.61-1.37,4.35-3.02.66-1.47-.28-2.22.54-2.98,1.2-1.11,4.13-.34,4.54-1,.47-.75-3.26-1.98-2.76-3.22.41-1.03,3.33-1.11,3.62-2.07.3-.98-2.58-1.39-2.45-2.87.08-.97,1.39-1.49,1.15-2.26-.21-.67-1.25-.46-1.74-1.14-.77-1.05,1.23-2.29.75-3.63-.44-1.21-2.69-1.87-4.52-1.68-1.68.17-2.17.95-3.2.76-1.23-.22-.89-1.4-2.45-2.87-.56-.52-1.89-1.77-3.7-1.62-1.24.1-1.37.76-2.89,1.12-1.7.4-2.25-.23-4.94-.37-1.88-.1-3.9-.21-4.85.64-1.21,1.09.38,2.82-.75,3.63Z"/><path class="cls-33" d="m659.46,935.23c-.34,1.12-2.68.93-3.32,2.3-.5,1.08.75,1.63.97,4.15.04.46,0,1.21-.09,2.73-.13,2.18-.28,2.78.19,3.36.56.68,1.19.36,1.79,1.09.73.9.01,1.67.63,2.39.79.94,2.96.82,4.45.25,1.23-.47,1.41-1.03,2.16-1,1.29.06,1.27,1.72,2.57,1.88,1.23.15,1.86-1.27,3.38-1.18,1.11.06,1.42.84,2.01.61.86-.35.27-2.09,1.32-2.91,1.18-.93,2.81.64,4.67-.24,1.72-.82,2.05-2.97,3.04-2.94.65.03.71.97,1.29.94.93-.05,1.13-2.57,2.54-3.09,1.47-.54,2.63,1.72,4.01,1.21,1.21-.44,2.01-2.81,1.47-4.51-.48-1.51-1.77-1.69-1.63-2.7.21-1.47,3.16-2.2,3.04-2.94-.13-.84-4.05-.11-4.51-1.37-.38-1.04,1.97-2.46,1.53-3.39-.44-.95-3.09.06-4.01-1.21-.61-.84.11-1.87-.63-2.39-.64-.45-1.35.2-2.22-.12-1.36-.51-.58-2.46-1.91-3.33-1.21-.79-3.51-.28-4.89.72-1.26.92-1.12,1.79-2.1,2.12-1.17.39-1.71-.74-4.01-1.21-.82-.17-2.79-.57-4.17.39-.94.66-.6,1.26-1.6,2.27-1.11,1.12-2.01.86-4.32,2-1.61.79-3.35,1.65-3.54,2.78-.24,1.46,2.27,2.14,1.91,3.33Z"/><path class="cls-4" d="m709.75,987.37c-3.22-2.9-2.58-8.21-1.32-18.83.44-3.72,1.47-9.35,3.51-20.63.28-1.52.4-2.18.61-3.43,1.5-8.8,1.65-12.71,2.02-12.71.65,0-1.58,12.27,3.07,27.26,2.87,9.26,5.92,16.86,5.92,16.86,3.38,8.43,5.18,11.32,3.29,13.27-2.83,2.92-12.54,2.32-17.1-1.79Z"/><polygon class="cls-4" points="712.04 971.27 687.82 950.07 713.7 979.48 712.04 971.27"/><polygon class="cls-4" points="712.57 958.56 687.36 929.06 713.7 955.23 712.57 958.56"/><polygon class="cls-4" points="715.02 960.47 727.62 942.13 715.02 964.77 715.02 960.47"/><polygon class="cls-4" points="718.76 976.54 735.27 951.53 718.76 983.86 718.76 976.54"/><path class="cls-4" d="m709.17,1036.31c5.77,1.4,16.07.66,20.42-1.52,4.22-2.12,2.25-5.31,1.05-7.66-6.6-12.95-4.59-29.21-3.94-34.43.34-2.76,1.12-6.85-3.68-10.84-3.27-2.72-9.83-5.98-13.39-5.17-5.62,1.28,3.26,11.13,2.51,26.73-.91,18.91-15.17,29.93-2.97,32.89Z"/><path class="cls-25" d="m260.15,1278.93c-5.52-1.14-9.07,23.07-29.29,37.62-26.1,18.78-74.48,17.5-90.8-1.3-11.51-13.26.25-26.83-13.18-40.21-14.86-14.81-37.76-6.68-43.93-18.16-8.2-15.23,26.53-39.91,17.57-51.89-5.08-6.8-19.31-2.91-21.97-9.08-3.63-8.42,21.5-18.77,19.04-29.84-2.47-11.08-29.33-8.22-38.08-23.35-8.19-14.18,5.52-33.81,7.32-36.32,17.46-24.33,46.57-20.63,54.18-41.51,4.39-12.02-3.47-18.16,2.93-24.65,11.8-11.96,44.2,3.17,52.72-7.78,4.61-5.94-3.79-11.81,0-19.46,3.22-6.51,12.99-9.69,77.62-11.67,26.76-.82,34.76-.57,45.4,2.59,19.99,5.96,36.92,18.54,35.15,22.05-1.36,2.7-12.9-1.61-14.64,1.3-3.05,5.08,23.81,32.23,60.04,38.92,13.27,2.45,20,.72,26.36,6.49,9.62,8.73,2.85,20.52,14.64,33.73,6.32,7.08,9.91,5.53,13.18,11.67,5.7,10.71-.34,24.55-7.32,32.43-2.79,3.15-9.49,10.7-20.17,12.7-3.47.65-5.27.32-6.19,1.57-3.69,5.02,20.02,17.4,17.57,29.84-1.94,9.86-18.57,10.81-19.04,19.46-.49,8.96,17.2,10.95,19.04,22.05,1.53,9.24-8.98,18.46-23.43,31.13-12.3,10.78-15.88,10.58-19.04,16.86-6.83,13.59,5.73,22.89,1.46,32.43-9.27,20.76-90.17,24.72-109.83-3.89-9.64-14.03-2.36-32.7-7.32-33.73Z"/><path class="cls-26" d="m367.49,1197.44c-4.38.5-6.24-6.64-11.83-6.71-4.41-.05-5.01,4.38-13.8,8.38-1.6.73-4.35,1.6-9.86,3.35-7.93,2.52-10.26,2.86-11.83,5.03-1.84,2.55.01,3.98-1.97,6.71-2.42,3.33-5.95,2.26-7.89,5.03-2.5,3.58.29,9.8,3.94,13.41,3.03,2.99,5.22,2.78,5.91,5.03,1.19,3.86-4.79,6.03-3.94,10.06.8,3.8,6.54,3.78,7.89,8.38.97,3.34-1.48,5.31,0,6.71,2.19,2.06,7.78-1.98,11.83,0,4.61,2.25.74,9.11,5.91,13.41,4.79,3.98,12.87,2.08,13.8,5.03.61,1.94-2.7,3.38-1.97,5.03,1.19,2.68,10.43-.1,13.8,3.35,3.52,3.61-3.29,10.03,0,13.41,2.9,2.98,12.24,2.18,17.74-1.68,4.89-3.43,4.14-7.47,7.89-8.38,5.5-1.34,11.31,6.35,13.8,5.03,2.86-1.51-4.01-12.06,0-15.09,3.31-2.5,10.93,2.51,13.8,0,2.92-2.55-3.55-9,0-13.41,2.34-2.91,6.82-2.17,7.89-5.03.93-2.48-2.19-3.71-1.97-6.71.34-4.67,8.17-4.99,9.86-10.06,1.54-4.6-2.8-10.69-7.89-13.41-4.66-2.49-7.62-.91-9.86-3.35-2.66-2.92.8-6.01,0-13.41-.28-2.63-.97-8.97-5.91-11.73-3.39-1.89-5.15-.08-9.86-1.68-5.22-1.78-5.25-4.77-11.83-10.06-4.59-3.69-9.53-7.66-13.8-6.71-5.48,1.23-5.19,9.53-9.86,10.06Z"/><path class="cls-32" d="m289.71,997.38c-4.36.43-6.21-5.75-11.77-5.8-4.38-.04-4.99,3.79-13.73,7.25-1.59.63-4.33,1.39-9.81,2.9-7.89,2.18-10.21,2.48-11.77,4.35-1.83,2.2.01,3.44-1.96,5.8-2.41,2.88-5.92,1.95-7.84,4.35-2.48,3.1.28,8.48,3.92,11.6,3.01,2.59,5.19,2.4,5.88,4.35,1.18,3.34-4.77,5.22-3.92,8.7.8,3.29,6.51,3.27,7.84,7.25.97,2.89-1.47,4.59,0,5.8,2.17,1.79,7.74-1.71,11.77,0,4.58,1.94.73,7.88,5.88,11.6,4.76,3.44,12.8,1.8,13.73,4.35.61,1.68-2.68,2.93-1.96,4.35,1.18,2.32,10.38-.08,13.73,2.9,3.5,3.12-3.28,8.68,0,11.6,2.88,2.57,12.18,1.89,17.65-1.45,4.87-2.97,4.12-6.46,7.84-7.25,5.47-1.16,11.25,5.49,13.73,4.35,2.84-1.31-3.98-10.43,0-13.05,3.3-2.17,10.88,2.17,13.73,0,2.9-2.21-3.54-7.78,0-11.6,2.33-2.52,6.78-1.88,7.84-4.35.92-2.14-2.18-3.21-1.96-5.8.34-4.04,8.12-4.32,9.81-8.7,1.53-3.98-2.78-9.25-7.84-11.6-4.63-2.15-7.58-.78-9.81-2.9-2.65-2.53.79-5.2,0-11.6-.28-2.27-.96-7.76-5.88-10.15-3.37-1.64-5.13-.06-9.81-1.45-5.2-1.54-5.23-4.13-11.77-8.7-4.56-3.19-9.48-6.63-13.73-5.8-5.45,1.06-5.17,8.24-9.81,8.7Z"/><path class="cls-20" d="m317.69,1287.13c.22-3.3,6.77-3.37,7.66-7.45.71-3.22-3.09-4.47-5.27-11.64-.4-1.31-.75-3.48-1.46-7.83-1.02-6.27-.97-8.04-2.63-9.58-1.96-1.81-3.49-.71-5.58-2.66-2.55-2.38-1.08-4.77-3.22-6.69-2.76-2.48-8.63-1.57-12.35.46-3.08,1.68-3.22,3.32-5.3,3.42-3.56.17-4.57-4.61-8.23-4.72-3.45-.1-4.3,4.11-8.54,4.26-3.07.11-4.43-2.05-5.88-1.22-2.14,1.23.56,6.06-1.78,8.67-2.66,2.97-8.1-1.11-12.65,1.9-4.21,2.79-3.76,9.06-6.49,9.2-1.79.1-2.56-2.59-4.11-2.36-2.53.38-1.49,7.67-5.02,9.51-3.69,1.93-8.3-4.23-11.76-2.43-3.05,1.58-3.75,8.58-1.2,13.31,2.27,4.21,5.93,4.39,6.16,7.3.35,4.28-7.27,7.14-6.49,9.2.9,2.37,11.18-.75,13.23,2.74,1.7,2.88-3.85,7.56-2.08,10.12,1.8,2.6,8.42-.97,11.76,2.43,2.2,2.25.88,5.39,3.22,6.69,2.03,1.13,3.58-.93,6.18-.23,4.05,1.1,3.15,6.89,7.34,9.05,3.8,1.96,9.8-.11,12.95-3.35,2.88-2.96,1.94-5.43,4.42-6.62,2.96-1.42,5.15,1.68,11.76,2.43,2.35.27,8.01.92,11.18-2.21,2.17-2.14.84-3.76,2.95-6.92,2.34-3.51,4.97-2.99,10.6-6.85,3.92-2.69,8.15-5.59,7.96-8.9-.25-4.24-7.57-5.54-7.34-9.05Z"/><path class="cls-28" d="m201.93,1115.73c-3.66,2.47-8.59-3.01-13.57-.47-3.93,2-2.44,6.21-8.4,13.83-1.09,1.39-3.13,3.44-7.21,7.54-5.88,5.91-7.79,7.29-8.19,9.94-.46,3.11,1.84,3.52,1.33,6.86-.62,4.07-4.24,4.76-4.69,8.11-.57,4.33,4.75,8.56,9.65,10.07,4.06,1.25,5.91.05,7.56,1.72,2.83,2.87-1.48,7.57,1.12,10.75,2.46,3,7.54.32,10.84,3.79,2.4,2.51,1.12,5.39,3.08,5.95,2.89.82,5.99-5.35,10.5-5.48,5.12-.14,4.84,7.74,11.4,9.16,6.07,1.31,12.38-4.11,14.55-1.93,1.43,1.44-.84,4.25.56,5.38,2.28,1.83,9.21-4.92,13.78-3.42,4.78,1.57,1.68,10.42,6.16,11.9,3.94,1.3,11.87-3.74,14.97-9.7,2.77-5.31.25-8.54,3.15-11.09,4.27-3.74,12.95.4,14.55-1.93,1.84-2.67-9.09-8.85-6.93-13.39,1.79-3.76,10.85-2.84,12.24-6.39,1.42-3.62-7.28-6.34-6.16-11.9.74-3.67,5.05-5.08,4.69-8.11-.32-2.63-3.65-2.28-4.83-5.04-1.84-4.3,4.96-8.21,4.13-13.49-.75-4.79-7.39-8.19-13.15-8.25-5.27-.05-7.18,2.73-10.29,1.59-3.7-1.36-2.05-5.7-6.16-11.9-1.46-2.2-4.98-7.51-10.63-7.67-3.88-.11-4.61,2.32-9.52,3.08-5.45.84-6.85-1.8-15.11-3.45-5.76-1.15-11.97-2.39-15.32.44-4.29,3.63-.24,10.86-4.13,13.49Z"/><path class="cls-20" d="m176.81,1024.68c-1.76,1.63-5.35-1.8-7.86-.1-1.99,1.34-.55,4.01-2.93,8.97-.43.9-1.33,2.24-3.11,4.93-2.57,3.87-3.48,4.78-3.34,6.48.16,2,1.54,2.23,1.7,4.37.2,2.62-1.79,3.11-1.58,5.26.26,2.78,3.9,5.41,6.92,6.3,2.51.74,3.4-.06,4.58.99,2.02,1.8.18,4.87,2.11,6.86,1.82,1.88,4.38.1,6.75,2.26,1.72,1.57,1.38,3.43,2.58,3.76,1.77.48,2.71-3.51,5.28-3.66,2.92-.16,3.84,4.88,7.81,5.69,3.67.75,6.55-2.81,8.1-1.45,1.02.9.1,2.73,1.06,3.43,1.56,1.14,4.62-3.28,7.45-2.39,2.96.93,2.39,6.64,5.16,7.52,2.44.77,6.31-2.56,7.28-6.43.86-3.44-1.03-5.47.29-7.14,1.94-2.45,7.49.06,8.1-1.45.69-1.73-6.43-5.53-5.81-8.46.52-2.43,5.85-1.97,6.16-4.27.32-2.33-5.05-3.95-5.16-7.52-.07-2.36,2.21-3.33,1.58-5.26-.54-1.68-2.41-1.4-3.46-3.15-1.65-2.73,1.72-5.32.53-8.69-1.09-3.06-5.37-5.13-8.69-5.08-3.04.05-3.75,1.85-5.69,1.17-2.31-.81-1.96-3.62-5.16-7.52-1.14-1.39-3.89-4.73-7.16-4.75-2.24-.01-2.33,1.55-5.05,2.11-3.02.62-4.18-1.05-9.15-1.98-3.47-.65-7.21-1.35-8.74.51-1.97,2.38,1.35,6.95-.53,8.69Z"/><path class="cls-29" d="m158.86,1309.41c3.83.35,4.31,6.36,9.08,7.36,3.77.79,4.99-2.64,13.15-4.33,1.49-.31,3.98-.54,8.98-.99,7.19-.66,9.25-.53,10.93-1.99,1.98-1.72.61-3.17,2.74-5.01,2.6-2.24,5.46-.78,7.55-2.66,2.7-2.43,1.29-7.86-1.27-11.36-2.13-2.9-4.04-3.11-4.28-5.02-.41-3.28,5.06-3.99,4.96-7.34-.09-3.17-5.02-4.13-5.44-8.02-.31-2.83,2.1-3.98,1.05-5.34-1.55-2.02-6.98.25-10.14-2.02-3.59-2.58.8-7.38-2.96-11.7-3.48-3.99-10.7-3.86-11.04-6.36-.22-1.65,2.85-2.24,2.48-3.67-.6-2.34-8.96-1.7-11.3-5.03-2.45-3.47,4.4-7.43,2.11-10.69-2.02-2.87-10.15-3.83-15.47-1.69-4.73,1.9-4.72,5.24-8.08,5.33-4.93.13-8.7-6.99-11.04-6.36-2.69.72,1.54,10.29-2.37,12.02-3.23,1.43-8.98-3.86-11.83-2.35-2.9,1.54,1.63,7.78-2.11,10.69-2.47,1.92-6.19.57-7.55,2.66-1.18,1.82,1.29,3.33.64,5.68-1.03,3.66-7.78,2.58-10.03,6.33-2.04,3.41.72,9,4.65,12.03,3.6,2.78,6.39,2.02,7.92,4.35,1.83,2.78-1.63,4.65-2.11,10.69-.17,2.14-.58,7.32,3.22,10.36,2.61,2.09,4.41.94,8.19,3.02,4.2,2.31,3.75,4.7,8.56,10.03,3.35,3.72,6.96,7.73,10.77,7.7,4.89-.05,5.95-6.71,10.03-6.33Z"/><path class="cls-29" d="m325.57,1055.04c-3.31,2.93-8.91-1.85-13.52,1.32-3.64,2.5-1.61,6.48-6.52,14.81-.9,1.52-2.65,3.82-6.16,8.42-5.06,6.63-6.78,8.26-6.82,10.93-.05,3.15,2.28,3.25,2.21,6.63-.09,4.12-3.59,5.28-3.59,8.66,0,4.37,5.83,7.86,10.88,8.72,4.19.71,5.86-.73,7.72.72,3.18,2.48-.48,7.7,2.51,10.51,2.83,2.65,7.52-.67,11.24,2.33,2.7,2.18,1.81,5.2,3.83,5.49,2.97.43,5.24-6.1,9.69-6.81,5.06-.81,5.8,7.04,12.5,7.58,6.19.5,11.73-5.7,14.18-3.82,1.61,1.24-.28,4.33,1.26,5.26,2.5,1.51,8.49-6.09,13.22-5.2,4.94.93,3.03,10.11,7.65,10.99,4.07.77,11.28-5.26,13.58-11.59,2.05-5.63-.87-8.5,1.68-11.41,3.74-4.27,12.89-1.31,14.18-3.82,1.48-2.89-10.17-7.58-8.61-12.36,1.29-3.96,10.39-4.24,11.31-7.94.93-3.77-8.05-5.33-7.65-10.99.26-3.73,4.35-5.7,3.59-8.66-.66-2.56-3.91-1.78-5.44-4.36-2.39-4.02,3.84-8.79,2.34-13.92-1.37-4.65-8.39-7.15-14.12-6.45-5.24.64-6.76,3.65-9.99,2.93-3.85-.86-2.77-5.38-7.65-10.99-1.73-1.99-5.91-6.79-11.54-6.21-3.86.4-4.27,2.91-9.03,4.3-5.29,1.55-7.03-.88-15.43-1.43-5.86-.38-12.18-.79-15.13,2.45-3.78,4.16,1.18,10.8-2.34,13.92Z"/><path class="cls-33" d="m88.78,1132.98c-1.06,4.3-8.37,3.57-10.37,8.81-1.57,4.14,2.35,6.24,3.04,15.91.12,1.76-.01,4.66-.29,10.45-.4,8.34-.89,10.66.59,12.89,1.74,2.62,3.72,1.37,5.58,4.18,2.27,3.44.04,6.39,1.96,9.17,2.47,3.59,9.25,3.13,13.89.94,3.85-1.81,4.41-3.95,6.75-3.82,4.02.22,3.97,6.61,8.02,7.2,3.83.56,5.8-4.85,10.56-4.52,3.46.24,4.44,3.24,6.26,2.33,2.69-1.34.85-8.01,4.11-11.14,3.7-3.56,8.76,2.47,14.57-.92,5.38-3.13,6.41-11.4,9.49-11.25,2.02.1,2.22,3.72,4.01,3.6,2.91-.19,3.53-9.86,7.92-11.83,4.59-2.06,8.22,6.58,12.52,4.65,3.79-1.7,6.29-10.78,4.59-17.29-1.51-5.8-5.54-6.49-5.09-10.34.66-5.65,9.85-8.45,9.49-11.25-.42-3.22-12.65-.41-14.09-5.24-1.19-3.99,6.14-9.43,4.79-13-1.37-3.63-9.63.22-12.52-4.65-1.9-3.22.34-7.17-1.96-9.17-1.99-1.73-4.23.77-6.95-.47-4.24-1.94-1.82-9.42-5.97-12.77-3.76-3.04-10.95-1.08-15.26,2.77-3.94,3.52-3.49,6.87-6.55,8.12-3.65,1.5-5.33-2.84-12.52-4.65-2.55-.65-8.71-2.2-13.01,1.5-2.94,2.54-1.86,4.83-4.99,8.7-3.47,4.3-6.28,3.29-13.5,7.65-5.04,3.04-10.46,6.31-11.05,10.67-.75,5.58,7.09,8.2,5.97,12.77Z"/><path class="cls-4" d="m245.77,1332.85c-10.05-11.12-8.07-31.47-4.11-72.19,1.39-14.25,4.57-35.85,10.95-79.06.86-5.82,1.24-8.35,1.91-13.15,4.69-33.75,5.17-48.73,6.3-48.72,2.02.02-4.94,47.04,9.58,104.5,8.97,35.48,18.48,64.62,18.48,64.62,10.55,32.32,16.17,43.39,10.27,50.87-8.83,11.2-39.14,8.9-53.39-6.87Z"/><polygon class="cls-4" points="252.91 1271.11 177.32 1189.85 258.09 1302.6 252.91 1271.11"/><polygon class="cls-4" points="254.57 1222.4 175.87 1109.31 258.09 1209.64 254.57 1222.4"/><polygon class="cls-4" points="262.2 1229.72 301.56 1159.44 262.2 1246.22 262.2 1229.72"/><polygon class="cls-4" points="273.88 1291.32 325.43 1195.44 273.88 1319.37 273.88 1291.32"/><path class="cls-35" d="m-9.11,187c2.52,5.64,9.37,21,23.05,26.9,7.54,3.25,19.5,4.65,24.1-2.56,5.52-8.65-2.57-24.97.35-26.9,3.65-2.41,14.07,24.47,26.54,23.06,6.05-.69,11.21-7.89,13.27-14.09,4.05-12.23-2.57-24.78,0-26.47,2.11-1.39,5.49,7.77,13.62,11.1,8.34,3.42,19.8-.05,24.45-8.54,5.1-9.31-.03-20.94,3.49-23.06,3.32-1.99,7.45,8.61,18.16,13.66,10.24,4.83,20.09,1.56,24.79,0,5.8-1.92,18.83-6.24,24.1-19.21,4.48-11.02.66-21.65,5.24-24.34,2.18-1.28,3.79.69,10.83,3.42,8.93,3.46,15.12,5.86,18.51,2.99,6.23-5.26-.73-25.08,3.84-27.75,3.06-1.79,6.67,6.79,17.11,11.1,3.81,1.57,11.65,4.81,17.11.85,10.17-7.37,5.34-34.8,10.13-35.87,2.59-.58,4.08,7.45,10.13,13.66,8.95,9.2,21.45,7.79,26.19,7.26,27.83-3.13,45.21-36.2,49.94-31.6,1.11,1.08.61,3.36,0,8.54-.71,6.05-3.34,28.59,1.05,42.7,2.79,8.97,10.52,21.3,19.56,21.78,11.67.61,17.55-18.97,31.08-17.08,3.7.52,3.28,1.99,9.08,3.42,3.45.85,15.19,3.74,22.35-2.13,10.88-8.92,6.81-34.45,11.18-35.01,1.83-.24,2.74,4.22,6.98,11.1,1.35,2.19,7.39,11.99,15.37,16.65,8.54,4.99,20.05,4.52,28.64-1.28,11.39-7.7,12.12-21.06,20.26-21.35,4.13-.15,4.56,3.27,11.87,7.69,2.3,1.39,16.67,10.08,30.03,4.7,9.75-3.93,13.3-13.06,18.16-10.67,2.45,1.2,2.48,3.98,5.59,10.67,1.29,2.78,5.93,12.79,12.57,18.36,4.91,4.12,14.34,8.68,22,4.7,11.64-6.05,10.33-27.21,17.46-28.18,6.11-.84,7.62,14.6,20.6,25.19,8.75,7.13,23.99,13.12,34.57,5.98,11.47-7.74,11.24-26.7,20.26-27.75,3.95-.46,6.97,2.83,9.78,5.55,12.66,12.24,35.57,26.67,53.43,23.06,14.07-2.85,24.33-16.75,25.49-18.36,8.31-11.53,8.87-22.58,17.46-26.05,4.82-1.94,7.72.29,15.72,2.13,5.27,1.22,20.31,4.7,32.83-.43,13.28-5.44,24.58-20.91,34.57-34.59,1.51-2.06,3.49-4.9,6.98-7.26,8.21-5.56,14.44-1.54,23.75-2.56,11.91-1.31,25.15-10.49,27.94-22.2,0,0,2.34-9.81-4.89-23.06-21.22-38.93-234.07-19.97-318.49-15.37-4.63.25,2.33-.15-317.45-8.11-76.02-1.89-152.51,17.08-228.04,6.4-30.08-4.25-56.04-10.13-79.62,8.97C-37.63,28.5-26.47,148.09-9.11,187Z"/><path class="cls-30" d="m665.83,453.26c-4.96.32-5.34,13.54,0,25.11,5.66,12.24,16.69,20.36,21.84,23.7,15.06,9.76,35.01,14.36,37.58,9.69,1.29-2.35-2.06-6.65-3.45-8.44-8.06-10.33-18.76-8.44-28.86-18.05-7.05-6.7-3.99-9.68-14.43-21.58-4.4-5.01-9.34-10.65-12.67-10.44Z"/><path class="cls-24" d="m1110.64,715.38c3.15-2.94-6.56-20.81-19.16-33.37-14.44-14.39-30.09-19.21-37.65-21.44-2.76-.81-27.06-7.98-30.77-1.23-.5.9-1.57,3.76,6.06,13.98,5.67,7.6,16.78,22.09,37.84,30.91,16.47,6.9,18.45,1.71,37.19,9.89,2.38,1.04,5.28,2.4,6.5,1.26Z"/><path class="cls-12" d="m529.84,231.76c2.64,6.91,17.26,8.76,27.35,6.69,18.58-3.81,28.54-22.25,35.04-34.27,6.3-11.66,13.47-24.93,8.68-39.12-3.14-9.28-11.31-18.71-16.43-17.31-7.81,2.15.83,26.98-14.64,43.51-1.44,1.54-8.15,6.08-21.56,15.15-8.06,5.45-15.72,10.4-18.16,19.26-.57,2.08-1.08,4.02-.29,6.1Z"/></svg>